<?xml version="1.0" encoding="UTF-8" standalone="no"?>
<!-- Created with matplotlib (https://matplotlib.org/) -->

<svg
   height="296.247062pt"
   version="1.1"
   viewBox="0 0 418.285402 296.247062"
   width="418.285402pt"
   id="svg814"
   sodipodi:docname="morse.svg"
   inkscape:version="1.1 (ce6663b3b7, 2021-05-25)"
   xmlns:inkscape="http://www.inkscape.org/namespaces/inkscape"
   xmlns:sodipodi="http://sodipodi.sourceforge.net/DTD/sodipodi-0.dtd"
   xmlns:xlink="http://www.w3.org/1999/xlink"
   xmlns="http://www.w3.org/2000/svg"
   xmlns:svg="http://www.w3.org/2000/svg"
   xmlns:rdf="http://www.w3.org/1999/02/22-rdf-syntax-ns#"
   xmlns:cc="http://creativecommons.org/ns#"
   xmlns:dc="http://purl.org/dc/elements/1.1/">
  <sodipodi:namedview
     id="namedview816"
     pagecolor="#ffffff"
     bordercolor="#666666"
     borderopacity="1.0"
     inkscape:pageshadow="2"
     inkscape:pageopacity="0.0"
     inkscape:pagecheckerboard="0"
     inkscape:document-units="pt"
     showgrid="false"
     inkscape:zoom="0.90509668"
     inkscape:cx="268.47961"
     inkscape:cy="380.62232"
     inkscape:window-width="1848"
     inkscape:window-height="1016"
     inkscape:window-x="72"
     inkscape:window-y="27"
     inkscape:window-maximized="1"
     inkscape:current-layer="figure_1" />
  <metadata
     id="metadata2">
    <rdf:RDF>
      <cc:Work>
        <dc:type
           rdf:resource="http://purl.org/dc/dcmitype/StillImage" />
        <dc:date>2021-07-17T21:36:46.485568</dc:date>
        <dc:format>image/svg+xml</dc:format>
        <dc:creator>
          <cc:Agent>
            <dc:title>Matplotlib v3.3.4, https://matplotlib.org/</dc:title>
          </cc:Agent>
        </dc:creator>
      </cc:Work>
    </rdf:RDF>
  </metadata>
  <defs
     id="defs6">
    <style
       type="text/css"
       id="style4">*{stroke-linecap:butt;stroke-linejoin:round;}</style>
  </defs>
  <g
     id="figure_1">
    <g
       id="patch_1">
      <path
         d="M 0 296.247062  L 418.285402 296.247062  L 418.285402 0  L 0 0  z "
         style="fill:none;"
         id="path8" />
    </g>
    <g
       id="axes_1">
      <g
         id="patch_2">
        <path
           d="M 76.285402 243.785148  L 411.085402 243.785148  L 411.085402 26.345148  L 76.285402 26.345148  z "
           style="fill:#ffffff;"
           id="path11" />
      </g>
      <g
         id="matplotlib.axis_1">
        <g
           id="xtick_1">
          <g
             id="line2d_1">
            <path
               clip-path="url(#p9e5dc59fdd)"
               d="M 111.415224 243.785148  L 111.415224 26.345148  "
               style="fill:none;stroke:#b0b0b0;stroke-linecap:square;stroke-width:0.8;"
               id="path14" />
          </g>
          <g
             id="line2d_2">
            <defs
               id="defs18">
              <path
                 d="M 0 0  L 0 3.5  "
                 id="m44d24f6df1"
                 style="stroke:#000000;stroke-width:0.8;" />
            </defs>
            <g
               id="g22">
              <use
                 style="stroke:#000000;stroke-width:0.8;"
                 x="111.415224"
                 xlink:href="#m44d24f6df1"
                 y="243.785148"
                 id="use20" />
            </g>
          </g>
          <g
             id="text_1">
            <!-- $\mathdefault{0.00}$ -->
            <g
               transform="translate(97.541469 261.854737)scale(0.16 -0.16)"
               id="g37">
              <defs
                 id="defs27">
                <path
                   d="M 42 31.640625  C 42 37.75 41.90625 48.125 37.703125 56.109375  C 34 63.109375 28.09375 65.59375 22.90625 65.59375  C 18.09375 65.59375 12 63.40625 8.203125 56.203125  C 4.203125 48.71875 3.796875 39.4375 3.796875 31.640625  C 3.796875 25.953125 3.90625 17.28125 7 9.671875  C 11.296875 -0.609375 19 -2 22.90625 -2  C 27.5 -2 34.5 -0.109375 38.59375 9.375  C 41.59375 16.28125 42 24.359375 42 31.640625  z M 22.90625 -0.40625  C 16.5 -0.40625 12.703125 5.078125 11.296875 12.6875  C 10.203125 18.5625 10.203125 27.15625 10.203125 32.75  C 10.203125 40.4375 10.203125 46.828125 11.5 52.921875  C 13.40625 61.390625 19 64 22.90625 64  C 27 64 32.296875 61.296875 34.203125 53.125  C 35.5 47.4375 35.59375 40.734375 35.59375 32.75  C 35.59375 26.25 35.59375 18.265625 34.40625 12.375  C 32.296875 1.484375 26.40625 -0.40625 22.90625 -0.40625  z "
                   id="CMR17-48" />
                <path
                   d="M 18.40625 4.796875  C 18.40625 7.6875 16 9.671875 13.59375 9.671875  C 10.703125 9.671875 8.703125 7.28125 8.703125 4.890625  C 8.703125 2 11.09375 0 13.5 0  C 16.40625 0 18.40625 2.390625 18.40625 4.796875  z "
                   id="CMMI12-58" />
              </defs>
              <use
                 transform="scale(0.996264)"
                 xlink:href="#CMR17-48"
                 id="use29" />
              <use
                 transform="translate(45.690477 0)scale(0.996264)"
                 xlink:href="#CMMI12-58"
                 id="use31" />
              <use
                 transform="translate(72.787654 0)scale(0.996264)"
                 xlink:href="#CMR17-48"
                 id="use33" />
              <use
                 transform="translate(118.478131 0)scale(0.996264)"
                 xlink:href="#CMR17-48"
                 id="use35" />
            </g>
          </g>
        </g>
        <g
           id="xtick_2">
          <g
             id="line2d_3">
            <path
               clip-path="url(#p9e5dc59fdd)"
               d="M 168.305623 243.785148  L 168.305623 26.345148  "
               style="fill:none;stroke:#b0b0b0;stroke-linecap:square;stroke-width:0.8;"
               id="path41" />
          </g>
          <g
             id="line2d_4">
            <g
               id="g46">
              <use
                 style="stroke:#000000;stroke-width:0.8;"
                 x="168.305623"
                 xlink:href="#m44d24f6df1"
                 y="243.785148"
                 id="use44" />
            </g>
          </g>
          <g
             id="text_2">
            <!-- $\mathdefault{0.01}$ -->
            <g
               transform="translate(154.431869 261.854737)scale(0.16 -0.16)"
               id="g60">
              <defs
                 id="defs50">
                <path
                   d="M 26.59375 63.40625  C 26.59375 65.5 26.5 65.5 25.09375 65.5  C 21.203125 61.1875 15.296875 59.796875 9.703125 59.796875  C 9.40625 59.796875 8.90625 59.796875 8.796875 59.5  C 8.703125 59.296875 8.703125 59.09375 8.703125 57  C 11.796875 57 17 57.59375 21 59.984375  L 21 7.203125  C 21 3.6875 20.796875 2.5 12.203125 2.5  L 9.203125 2.5  L 9.203125 0  C 14 0 19 0 23.796875 0  C 28.59375 0 33.59375 0 38.40625 0  L 38.40625 2.5  L 35.40625 2.5  C 26.796875 2.5 26.59375 3.59375 26.59375 7.15625  z "
                   id="CMR17-49" />
              </defs>
              <use
                 transform="scale(0.996264)"
                 xlink:href="#CMR17-48"
                 id="use52" />
              <use
                 transform="translate(45.690477 0)scale(0.996264)"
                 xlink:href="#CMMI12-58"
                 id="use54" />
              <use
                 transform="translate(72.787654 0)scale(0.996264)"
                 xlink:href="#CMR17-48"
                 id="use56" />
              <use
                 transform="translate(118.478131 0)scale(0.996264)"
                 xlink:href="#CMR17-49"
                 id="use58" />
            </g>
          </g>
        </g>
        <g
           id="xtick_3">
          <g
             id="line2d_5">
            <path
               clip-path="url(#p9e5dc59fdd)"
               d="M 225.196023 243.785148  L 225.196023 26.345148  "
               style="fill:none;stroke:#b0b0b0;stroke-linecap:square;stroke-width:0.8;"
               id="path64" />
          </g>
          <g
             id="line2d_6">
            <g
               id="g69">
              <use
                 style="stroke:#000000;stroke-width:0.8;"
                 x="225.196023"
                 xlink:href="#m44d24f6df1"
                 y="243.785148"
                 id="use67" />
            </g>
          </g>
          <g
             id="text_3">
            <!-- $\mathdefault{0.02}$ -->
            <g
               transform="translate(211.322268 261.854737)scale(0.16 -0.16)"
               id="g83">
              <defs
                 id="defs73">
                <path
                   d="M 41.703125 15.453125  L 39.90625 15.453125  C 38.90625 8.375 38.09375 7.171875 37.703125 6.5625  C 37.203125 5.765625 30 5.765625 28.59375 5.765625  L 9.40625 5.765625  C 13 9.671875 20 16.75 28.5 24.953125  C 34.59375 30.734375 41.703125 37.53125 41.703125 47.421875  C 41.703125 59.21875 32.296875 66 21.796875 66  C 10.796875 66 4.09375 56.3125 4.09375 47.34375  C 4.09375 43.4375 7 42.9375 8.203125 42.9375  C 9.203125 42.9375 12.203125 43.546875 12.203125 47.03125  C 12.203125 50.109375 9.59375 51 8.203125 51  C 7.59375 51 7 50.90625 6.59375 50.703125  C 8.5 59.21875 14.296875 63.40625 20.40625 63.40625  C 29.09375 63.40625 34.796875 56.515625 34.796875 47.421875  C 34.796875 38.734375 29.703125 31.25 24 24.75  L 4.09375 2.28125  L 4.09375 0  L 39.296875 0  z "
                   id="CMR17-50" />
              </defs>
              <use
                 transform="scale(0.996264)"
                 xlink:href="#CMR17-48"
                 id="use75" />
              <use
                 transform="translate(45.690477 0)scale(0.996264)"
                 xlink:href="#CMMI12-58"
                 id="use77" />
              <use
                 transform="translate(72.787654 0)scale(0.996264)"
                 xlink:href="#CMR17-48"
                 id="use79" />
              <use
                 transform="translate(118.478131 0)scale(0.996264)"
                 xlink:href="#CMR17-50"
                 id="use81" />
            </g>
          </g>
        </g>
        <g
           id="xtick_4">
          <g
             id="line2d_7">
            <path
               clip-path="url(#p9e5dc59fdd)"
               d="M 282.086422 243.785148  L 282.086422 26.345148  "
               style="fill:none;stroke:#b0b0b0;stroke-linecap:square;stroke-width:0.8;"
               id="path87" />
          </g>
          <g
             id="line2d_8">
            <g
               id="g92">
              <use
                 style="stroke:#000000;stroke-width:0.8;"
                 x="282.086422"
                 xlink:href="#m44d24f6df1"
                 y="243.785148"
                 id="use90" />
            </g>
          </g>
          <g
             id="text_4">
            <!-- $\mathdefault{0.03}$ -->
            <g
               transform="translate(268.212667 261.854737)scale(0.16 -0.16)"
               id="g106">
              <defs
                 id="defs96">
                <path
                   d="M 22.09375 33.703125  C 31 33.703125 34.90625 25.96875 34.90625 17.03125  C 34.90625 5 28.5 0.390625 22.703125 0.390625  C 17.40625 0.390625 8.796875 3.03125 6.09375 10.828125  C 6.59375 10.625 7.09375 10.625 7.59375 10.625  C 10 10.625 11.796875 12.21875 11.796875 14.8125  C 11.796875 17.703125 9.59375 19 7.59375 19  C 5.90625 19 3.296875 18.203125 3.296875 14.46875  C 3.296875 5.234375 12.296875 -2 22.90625 -2  C 34 -2 42.5 6.71875 42.5 16.953125  C 42.5 26.671875 34.5 33.703125 25 34.796875  C 32.59375 36.375 39.90625 43.0625 39.90625 52.015625  C 39.90625 59.6875 32 65.296875 23 65.296875  C 13.90625 65.296875 5.90625 59.828125 5.90625 52.015625  C 5.90625 48.59375 8.5 48 9.796875 48  C 11.90625 48 13.703125 49.296875 13.703125 51.890625  C 13.703125 54.46875 11.90625 55.765625 9.796875 55.765625  C 9.40625 55.765625 8.90625 55.765625 8.5 55.578125  C 11.40625 61.859375 19.296875 63 22.796875 63  C 26.296875 63 32.90625 61.328125 32.90625 51.875  C 32.90625 49.109375 32.5 44.1875 29.09375 39.84375  C 26.09375 36 22.703125 36 19.40625 35.6875  C 18.90625 35.6875 16.59375 35.453125 16.203125 35.453125  C 15.5 35.359375 15.09375 35.265625 15.09375 34.5  C 15.09375 33.796875 15.203125 33.703125 17.203125 33.703125  z "
                   id="CMR17-51" />
              </defs>
              <use
                 transform="scale(0.996264)"
                 xlink:href="#CMR17-48"
                 id="use98" />
              <use
                 transform="translate(45.690477 0)scale(0.996264)"
                 xlink:href="#CMMI12-58"
                 id="use100" />
              <use
                 transform="translate(72.787654 0)scale(0.996264)"
                 xlink:href="#CMR17-48"
                 id="use102" />
              <use
                 transform="translate(118.478131 0)scale(0.996264)"
                 xlink:href="#CMR17-51"
                 id="use104" />
            </g>
          </g>
        </g>
        <g
           id="xtick_5">
          <g
             id="line2d_9">
            <path
               clip-path="url(#p9e5dc59fdd)"
               d="M 338.976821 243.785148  L 338.976821 26.345148  "
               style="fill:none;stroke:#b0b0b0;stroke-linecap:square;stroke-width:0.8;"
               id="path110" />
          </g>
          <g
             id="line2d_10">
            <g
               id="g115">
              <use
                 style="stroke:#000000;stroke-width:0.8;"
                 x="338.976821"
                 xlink:href="#m44d24f6df1"
                 y="243.785148"
                 id="use113" />
            </g>
          </g>
          <g
             id="text_5">
            <!-- $\mathdefault{0.04}$ -->
            <g
               transform="translate(325.103067 261.854737)scale(0.16 -0.16)"
               id="g129">
              <defs
                 id="defs119">
                <path
                   d="M 33.59375 64.40625  C 33.59375 66.5 33.5 66.5 31.703125 66.5  L 2 19.59375  L 2 17  L 27.796875 17  L 27.796875 7.140625  C 27.796875 3.5 27.59375 2.5 20.59375 2.5  L 18.703125 2.5  L 18.703125 0  C 21.90625 0 27.296875 0 30.703125 0  C 34.09375 0 39.5 0 42.703125 0  L 42.703125 2.5  L 40.796875 2.5  C 33.796875 2.5 33.59375 3.5 33.59375 7.140625  L 33.59375 17  L 43.796875 17  L 43.796875 19.59375  L 33.59375 19.59375  z M 28.09375 57.859375  L 28.09375 19.59375  L 4 19.59375  z "
                   id="CMR17-52" />
              </defs>
              <use
                 transform="scale(0.996264)"
                 xlink:href="#CMR17-48"
                 id="use121" />
              <use
                 transform="translate(45.690477 0)scale(0.996264)"
                 xlink:href="#CMMI12-58"
                 id="use123" />
              <use
                 transform="translate(72.787654 0)scale(0.996264)"
                 xlink:href="#CMR17-48"
                 id="use125" />
              <use
                 transform="translate(118.478131 0)scale(0.996264)"
                 xlink:href="#CMR17-52"
                 id="use127" />
            </g>
          </g>
        </g>
        <g
           id="xtick_6">
          <g
             id="line2d_11">
            <path
               clip-path="url(#p9e5dc59fdd)"
               d="M 395.867221 243.785148  L 395.867221 26.345148  "
               style="fill:none;stroke:#b0b0b0;stroke-linecap:square;stroke-width:0.8;"
               id="path133" />
          </g>
          <g
             id="line2d_12">
            <g
               id="g138">
              <use
                 style="stroke:#000000;stroke-width:0.8;"
                 x="395.867221"
                 xlink:href="#m44d24f6df1"
                 y="243.785148"
                 id="use136" />
            </g>
          </g>
          <g
             id="text_6">
            <!-- $\mathdefault{0.05}$ -->
            <g
               transform="translate(381.993466 261.854737)scale(0.16 -0.16)"
               id="g152">
              <defs
                 id="defs142">
                <path
                   d="M 11.40625 57.6875  C 12.40625 57.28125 16.5 56 20.703125 56  C 30 56 35.09375 61.109375 38 64.0625  C 38 64.953125 38 65.5 37.40625 65.5  C 37.296875 65.5 37.09375 65.5 36.296875 65.046875  C 32.796875 63.40625 28.703125 62.078125 23.703125 62.078125  C 20.703125 62.078125 16.203125 62.484375 11.296875 64.671875  C 10.203125 65.171875 10 65.171875 9.90625 65.171875  C 9.40625 65.171875 9.296875 65.0625 9.296875 63.078125  L 9.296875 34.421875  C 9.296875 32.640625 9.296875 32.140625 10.296875 32.140625  C 10.796875 32.140625 11 32.34375 11.5 33.03125  C 14.703125 37.515625 19.09375 39.40625 24.09375 39.40625  C 27.59375 39.40625 35.09375 37.21875 35.09375 20.140625  C 35.09375 16.953125 35.09375 11.171875 32.09375 6.578125  C 29.59375 2.484375 25.703125 0.390625 21.40625 0.390625  C 14.796875 0.390625 8.09375 5 6.296875 12.71875  C 6.703125 12.609375 7.5 12.421875 7.90625 12.421875  C 9.203125 12.421875 11.703125 13.125 11.703125 16.21875  C 11.703125 18.90625 9.796875 20 7.90625 20  C 5.59375 20 4.09375 18.59375 4.09375 15.796875  C 4.09375 7.09375 11 -2 21.59375 -2  C 31.90625 -2 41.703125 6.875 41.703125 19.75  C 41.703125 31.71875 33.90625 41 24.203125 41  C 19.09375 41 14.796875 39.109375 11.40625 35.53125  z "
                   id="CMR17-53" />
              </defs>
              <use
                 transform="scale(0.996264)"
                 xlink:href="#CMR17-48"
                 id="use144" />
              <use
                 transform="translate(45.690477 0)scale(0.996264)"
                 xlink:href="#CMMI12-58"
                 id="use146" />
              <use
                 transform="translate(72.787654 0)scale(0.996264)"
                 xlink:href="#CMR17-48"
                 id="use148" />
              <use
                 transform="translate(118.478131 0)scale(0.996264)"
                 xlink:href="#CMR17-53"
                 id="use150" />
            </g>
          </g>
        </g>
        <g
           id="xtick_7">
          <g
             id="line2d_13">
            <path
               clip-path="url(#p9e5dc59fdd)"
               d="M 77.280984 243.785148  L 77.280984 26.345148  "
               style="fill:none;stroke:#b0b0b0;stroke-dasharray:5.12,1.28,0.8,1.28;stroke-dashoffset:0;stroke-opacity:0.4;stroke-width:0.8;"
               id="path156" />
          </g>
          <g
             id="line2d_14">
            <defs
               id="defs160">
              <path
                 d="M 0 0  L 0 2  "
                 id="m5df41c5183"
                 style="stroke:#000000;stroke-width:0.6;" />
            </defs>
            <g
               id="g164">
              <use
                 style="stroke:#000000;stroke-width:0.6;"
                 x="77.280984"
                 xlink:href="#m5df41c5183"
                 y="243.785148"
                 id="use162" />
            </g>
          </g>
        </g>
        <g
           id="xtick_8">
          <g
             id="line2d_15">
            <path
               clip-path="url(#p9e5dc59fdd)"
               d="M 88.659064 243.785148  L 88.659064 26.345148  "
               style="fill:none;stroke:#b0b0b0;stroke-dasharray:5.12,1.28,0.8,1.28;stroke-dashoffset:0;stroke-opacity:0.4;stroke-width:0.8;"
               id="path168" />
          </g>
          <g
             id="line2d_16">
            <g
               id="g173">
              <use
                 style="stroke:#000000;stroke-width:0.6;"
                 x="88.659064"
                 xlink:href="#m5df41c5183"
                 y="243.785148"
                 id="use171" />
            </g>
          </g>
        </g>
        <g
           id="xtick_9">
          <g
             id="line2d_17">
            <path
               clip-path="url(#p9e5dc59fdd)"
               d="M 100.037144 243.785148  L 100.037144 26.345148  "
               style="fill:none;stroke:#b0b0b0;stroke-dasharray:5.12,1.28,0.8,1.28;stroke-dashoffset:0;stroke-opacity:0.4;stroke-width:0.8;"
               id="path177" />
          </g>
          <g
             id="line2d_18">
            <g
               id="g182">
              <use
                 style="stroke:#000000;stroke-width:0.6;"
                 x="100.037144"
                 xlink:href="#m5df41c5183"
                 y="243.785148"
                 id="use180" />
            </g>
          </g>
        </g>
        <g
           id="xtick_10">
          <g
             id="line2d_19">
            <path
               clip-path="url(#p9e5dc59fdd)"
               d="M 122.793304 243.785148  L 122.793304 26.345148  "
               style="fill:none;stroke:#b0b0b0;stroke-dasharray:5.12,1.28,0.8,1.28;stroke-dashoffset:0;stroke-opacity:0.4;stroke-width:0.8;"
               id="path186" />
          </g>
          <g
             id="line2d_20">
            <g
               id="g191">
              <use
                 style="stroke:#000000;stroke-width:0.6;"
                 x="122.793304"
                 xlink:href="#m5df41c5183"
                 y="243.785148"
                 id="use189" />
            </g>
          </g>
        </g>
        <g
           id="xtick_11">
          <g
             id="line2d_21">
            <path
               clip-path="url(#p9e5dc59fdd)"
               d="M 134.171384 243.785148  L 134.171384 26.345148  "
               style="fill:none;stroke:#b0b0b0;stroke-dasharray:5.12,1.28,0.8,1.28;stroke-dashoffset:0;stroke-opacity:0.4;stroke-width:0.8;"
               id="path195" />
          </g>
          <g
             id="line2d_22">
            <g
               id="g200">
              <use
                 style="stroke:#000000;stroke-width:0.6;"
                 x="134.171384"
                 xlink:href="#m5df41c5183"
                 y="243.785148"
                 id="use198" />
            </g>
          </g>
        </g>
        <g
           id="xtick_12">
          <g
             id="line2d_23">
            <path
               clip-path="url(#p9e5dc59fdd)"
               d="M 145.549464 243.785148  L 145.549464 26.345148  "
               style="fill:none;stroke:#b0b0b0;stroke-dasharray:5.12,1.28,0.8,1.28;stroke-dashoffset:0;stroke-opacity:0.4;stroke-width:0.8;"
               id="path204" />
          </g>
          <g
             id="line2d_24">
            <g
               id="g209">
              <use
                 style="stroke:#000000;stroke-width:0.6;"
                 x="145.549464"
                 xlink:href="#m5df41c5183"
                 y="243.785148"
                 id="use207" />
            </g>
          </g>
        </g>
        <g
           id="xtick_13">
          <g
             id="line2d_25">
            <path
               clip-path="url(#p9e5dc59fdd)"
               d="M 156.927543 243.785148  L 156.927543 26.345148  "
               style="fill:none;stroke:#b0b0b0;stroke-dasharray:5.12,1.28,0.8,1.28;stroke-dashoffset:0;stroke-opacity:0.4;stroke-width:0.8;"
               id="path213" />
          </g>
          <g
             id="line2d_26">
            <g
               id="g218">
              <use
                 style="stroke:#000000;stroke-width:0.6;"
                 x="156.927543"
                 xlink:href="#m5df41c5183"
                 y="243.785148"
                 id="use216" />
            </g>
          </g>
        </g>
        <g
           id="xtick_14">
          <g
             id="line2d_27">
            <path
               clip-path="url(#p9e5dc59fdd)"
               d="M 179.683703 243.785148  L 179.683703 26.345148  "
               style="fill:none;stroke:#b0b0b0;stroke-dasharray:5.12,1.28,0.8,1.28;stroke-dashoffset:0;stroke-opacity:0.4;stroke-width:0.8;"
               id="path222" />
          </g>
          <g
             id="line2d_28">
            <g
               id="g227">
              <use
                 style="stroke:#000000;stroke-width:0.6;"
                 x="179.683703"
                 xlink:href="#m5df41c5183"
                 y="243.785148"
                 id="use225" />
            </g>
          </g>
        </g>
        <g
           id="xtick_15">
          <g
             id="line2d_29">
            <path
               clip-path="url(#p9e5dc59fdd)"
               d="M 191.061783 243.785148  L 191.061783 26.345148  "
               style="fill:none;stroke:#b0b0b0;stroke-dasharray:5.12,1.28,0.8,1.28;stroke-dashoffset:0;stroke-opacity:0.4;stroke-width:0.8;"
               id="path231" />
          </g>
          <g
             id="line2d_30">
            <g
               id="g236">
              <use
                 style="stroke:#000000;stroke-width:0.6;"
                 x="191.061783"
                 xlink:href="#m5df41c5183"
                 y="243.785148"
                 id="use234" />
            </g>
          </g>
        </g>
        <g
           id="xtick_16">
          <g
             id="line2d_31">
            <path
               clip-path="url(#p9e5dc59fdd)"
               d="M 202.439863 243.785148  L 202.439863 26.345148  "
               style="fill:none;stroke:#b0b0b0;stroke-dasharray:5.12,1.28,0.8,1.28;stroke-dashoffset:0;stroke-opacity:0.4;stroke-width:0.8;"
               id="path240" />
          </g>
          <g
             id="line2d_32">
            <g
               id="g245">
              <use
                 style="stroke:#000000;stroke-width:0.6;"
                 x="202.439863"
                 xlink:href="#m5df41c5183"
                 y="243.785148"
                 id="use243" />
            </g>
          </g>
        </g>
        <g
           id="xtick_17">
          <g
             id="line2d_33">
            <path
               clip-path="url(#p9e5dc59fdd)"
               d="M 213.817943 243.785148  L 213.817943 26.345148  "
               style="fill:none;stroke:#b0b0b0;stroke-dasharray:5.12,1.28,0.8,1.28;stroke-dashoffset:0;stroke-opacity:0.4;stroke-width:0.8;"
               id="path249" />
          </g>
          <g
             id="line2d_34">
            <g
               id="g254">
              <use
                 style="stroke:#000000;stroke-width:0.6;"
                 x="213.817943"
                 xlink:href="#m5df41c5183"
                 y="243.785148"
                 id="use252" />
            </g>
          </g>
        </g>
        <g
           id="xtick_18">
          <g
             id="line2d_35">
            <path
               clip-path="url(#p9e5dc59fdd)"
               d="M 236.574102 243.785148  L 236.574102 26.345148  "
               style="fill:none;stroke:#b0b0b0;stroke-dasharray:5.12,1.28,0.8,1.28;stroke-dashoffset:0;stroke-opacity:0.4;stroke-width:0.8;"
               id="path258" />
          </g>
          <g
             id="line2d_36">
            <g
               id="g263">
              <use
                 style="stroke:#000000;stroke-width:0.6;"
                 x="236.574102"
                 xlink:href="#m5df41c5183"
                 y="243.785148"
                 id="use261" />
            </g>
          </g>
        </g>
        <g
           id="xtick_19">
          <g
             id="line2d_37">
            <path
               clip-path="url(#p9e5dc59fdd)"
               d="M 247.952182 243.785148  L 247.952182 26.345148  "
               style="fill:none;stroke:#b0b0b0;stroke-dasharray:5.12,1.28,0.8,1.28;stroke-dashoffset:0;stroke-opacity:0.4;stroke-width:0.8;"
               id="path267" />
          </g>
          <g
             id="line2d_38">
            <g
               id="g272">
              <use
                 style="stroke:#000000;stroke-width:0.6;"
                 x="247.952182"
                 xlink:href="#m5df41c5183"
                 y="243.785148"
                 id="use270" />
            </g>
          </g>
        </g>
        <g
           id="xtick_20">
          <g
             id="line2d_39">
            <path
               clip-path="url(#p9e5dc59fdd)"
               d="M 259.330262 243.785148  L 259.330262 26.345148  "
               style="fill:none;stroke:#b0b0b0;stroke-dasharray:5.12,1.28,0.8,1.28;stroke-dashoffset:0;stroke-opacity:0.4;stroke-width:0.8;"
               id="path276" />
          </g>
          <g
             id="line2d_40">
            <g
               id="g281">
              <use
                 style="stroke:#000000;stroke-width:0.6;"
                 x="259.330262"
                 xlink:href="#m5df41c5183"
                 y="243.785148"
                 id="use279" />
            </g>
          </g>
        </g>
        <g
           id="xtick_21">
          <g
             id="line2d_41">
            <path
               clip-path="url(#p9e5dc59fdd)"
               d="M 270.708342 243.785148  L 270.708342 26.345148  "
               style="fill:none;stroke:#b0b0b0;stroke-dasharray:5.12,1.28,0.8,1.28;stroke-dashoffset:0;stroke-opacity:0.4;stroke-width:0.8;"
               id="path285" />
          </g>
          <g
             id="line2d_42">
            <g
               id="g290">
              <use
                 style="stroke:#000000;stroke-width:0.6;"
                 x="270.708342"
                 xlink:href="#m5df41c5183"
                 y="243.785148"
                 id="use288" />
            </g>
          </g>
        </g>
        <g
           id="xtick_22">
          <g
             id="line2d_43">
            <path
               clip-path="url(#p9e5dc59fdd)"
               d="M 293.464502 243.785148  L 293.464502 26.345148  "
               style="fill:none;stroke:#b0b0b0;stroke-dasharray:5.12,1.28,0.8,1.28;stroke-dashoffset:0;stroke-opacity:0.4;stroke-width:0.8;"
               id="path294" />
          </g>
          <g
             id="line2d_44">
            <g
               id="g299">
              <use
                 style="stroke:#000000;stroke-width:0.6;"
                 x="293.464502"
                 xlink:href="#m5df41c5183"
                 y="243.785148"
                 id="use297" />
            </g>
          </g>
        </g>
        <g
           id="xtick_23">
          <g
             id="line2d_45">
            <path
               clip-path="url(#p9e5dc59fdd)"
               d="M 304.842582 243.785148  L 304.842582 26.345148  "
               style="fill:none;stroke:#b0b0b0;stroke-dasharray:5.12,1.28,0.8,1.28;stroke-dashoffset:0;stroke-opacity:0.4;stroke-width:0.8;"
               id="path303" />
          </g>
          <g
             id="line2d_46">
            <g
               id="g308">
              <use
                 style="stroke:#000000;stroke-width:0.6;"
                 x="304.842582"
                 xlink:href="#m5df41c5183"
                 y="243.785148"
                 id="use306" />
            </g>
          </g>
        </g>
        <g
           id="xtick_24">
          <g
             id="line2d_47">
            <path
               clip-path="url(#p9e5dc59fdd)"
               d="M 316.220662 243.785148  L 316.220662 26.345148  "
               style="fill:none;stroke:#b0b0b0;stroke-dasharray:5.12,1.28,0.8,1.28;stroke-dashoffset:0;stroke-opacity:0.4;stroke-width:0.8;"
               id="path312" />
          </g>
          <g
             id="line2d_48">
            <g
               id="g317">
              <use
                 style="stroke:#000000;stroke-width:0.6;"
                 x="316.220662"
                 xlink:href="#m5df41c5183"
                 y="243.785148"
                 id="use315" />
            </g>
          </g>
        </g>
        <g
           id="xtick_25">
          <g
             id="line2d_49">
            <path
               clip-path="url(#p9e5dc59fdd)"
               d="M 327.598741 243.785148  L 327.598741 26.345148  "
               style="fill:none;stroke:#b0b0b0;stroke-dasharray:5.12,1.28,0.8,1.28;stroke-dashoffset:0;stroke-opacity:0.4;stroke-width:0.8;"
               id="path321" />
          </g>
          <g
             id="line2d_50">
            <g
               id="g326">
              <use
                 style="stroke:#000000;stroke-width:0.6;"
                 x="327.598741"
                 xlink:href="#m5df41c5183"
                 y="243.785148"
                 id="use324" />
            </g>
          </g>
        </g>
        <g
           id="xtick_26">
          <g
             id="line2d_51">
            <path
               clip-path="url(#p9e5dc59fdd)"
               d="M 350.354901 243.785148  L 350.354901 26.345148  "
               style="fill:none;stroke:#b0b0b0;stroke-dasharray:5.12,1.28,0.8,1.28;stroke-dashoffset:0;stroke-opacity:0.4;stroke-width:0.8;"
               id="path330" />
          </g>
          <g
             id="line2d_52">
            <g
               id="g335">
              <use
                 style="stroke:#000000;stroke-width:0.6;"
                 x="350.354901"
                 xlink:href="#m5df41c5183"
                 y="243.785148"
                 id="use333" />
            </g>
          </g>
        </g>
        <g
           id="xtick_27">
          <g
             id="line2d_53">
            <path
               clip-path="url(#p9e5dc59fdd)"
               d="M 361.732981 243.785148  L 361.732981 26.345148  "
               style="fill:none;stroke:#b0b0b0;stroke-dasharray:5.12,1.28,0.8,1.28;stroke-dashoffset:0;stroke-opacity:0.4;stroke-width:0.8;"
               id="path339" />
          </g>
          <g
             id="line2d_54">
            <g
               id="g344">
              <use
                 style="stroke:#000000;stroke-width:0.6;"
                 x="361.732981"
                 xlink:href="#m5df41c5183"
                 y="243.785148"
                 id="use342" />
            </g>
          </g>
        </g>
        <g
           id="xtick_28">
          <g
             id="line2d_55">
            <path
               clip-path="url(#p9e5dc59fdd)"
               d="M 373.111061 243.785148  L 373.111061 26.345148  "
               style="fill:none;stroke:#b0b0b0;stroke-dasharray:5.12,1.28,0.8,1.28;stroke-dashoffset:0;stroke-opacity:0.4;stroke-width:0.8;"
               id="path348" />
          </g>
          <g
             id="line2d_56">
            <g
               id="g353">
              <use
                 style="stroke:#000000;stroke-width:0.6;"
                 x="373.111061"
                 xlink:href="#m5df41c5183"
                 y="243.785148"
                 id="use351" />
            </g>
          </g>
        </g>
        <g
           id="xtick_29">
          <g
             id="line2d_57">
            <path
               clip-path="url(#p9e5dc59fdd)"
               d="M 384.489141 243.785148  L 384.489141 26.345148  "
               style="fill:none;stroke:#b0b0b0;stroke-dasharray:5.12,1.28,0.8,1.28;stroke-dashoffset:0;stroke-opacity:0.4;stroke-width:0.8;"
               id="path357" />
          </g>
          <g
             id="line2d_58">
            <g
               id="g362">
              <use
                 style="stroke:#000000;stroke-width:0.6;"
                 x="384.489141"
                 xlink:href="#m5df41c5183"
                 y="243.785148"
                 id="use360" />
            </g>
          </g>
        </g>
        <g
           id="xtick_30">
          <g
             id="line2d_59">
            <path
               clip-path="url(#p9e5dc59fdd)"
               d="M 407.2453 243.785148  L 407.2453 26.345148  "
               style="fill:none;stroke:#b0b0b0;stroke-dasharray:5.12,1.28,0.8,1.28;stroke-dashoffset:0;stroke-opacity:0.4;stroke-width:0.8;"
               id="path366" />
          </g>
          <g
             id="line2d_60">
            <g
               id="g371">
              <use
                 style="stroke:#000000;stroke-width:0.6;"
                 x="407.2453"
                 xlink:href="#m5df41c5183"
                 y="243.785148"
                 id="use369" />
            </g>
          </g>
        </g>
        <g
           id="text_7">
          <!-- Distancia del equilibrio, $\xi (\AA)$ -->
          <g
             transform="translate(138.613594 284.578878)scale(0.18 -0.18)"
             id="g454">
            <defs
               id="defs396">
              <path
                 d="M 5.203125 68  L 5.203125 65.40625  C 12.09375 65.40625 13.203125 65.40625 13.203125 60.9375  L 13.203125 7.0625  C 13.203125 2.59375 12.09375 2.59375 5.203125 2.59375  L 5.203125 0  L 37 0  C 53.09375 0 66 14.734375 66 33.453125  C 66 52.28125 53.296875 68 37 68  z M 23.796875 2.59375  C 19.796875 2.59375 19.59375 3.078125 19.59375 6.46875  L 19.59375 61.53125  C 19.59375 64.921875 19.796875 65.40625 23.796875 65.40625  L 35 65.40625  C 43.296875 65.40625 58.59375 60.53125 58.59375 33.453125  C 58.59375 19.40625 54.5 13.734375 52.59375 11.046875  C 50.203125 7.96875 44.5 2.59375 35 2.59375  z "
                 id="CMR17-68" />
              <path
                 d="M 15.5 61.078125  C 15.5 63.265625 13.703125 65.15625 11.40625 65.15625  C 9.203125 65.15625 7.296875 63.375 7.296875 61.078125  C 7.296875 58.890625 9.09375 57 11.40625 57  C 13.59375 57 15.5 58.796875 15.5 61.078125  z M 3.796875 42.28125  L 3.796875 39.703125  C 9.40625 39.703125 10.203125 39.09375 10.203125 34.328125  L 10.203125 6.671875  C 10.203125 2.875 9.796875 2.390625 3.40625 2.390625  L 3.40625 -0.203125  C 5.796875 0 10.09375 0 12.59375 0  C 15 0 19.09375 0 21.40625 -0.203125  L 21.40625 2.390625  C 15.5 2.390625 15.296875 2.984375 15.296875 6.5625  L 15.296875 43.375  z "
                 id="CMR17-105" />
              <path
                 d="M 30.90625 42.140625  C 30.90625 43.953125 30.796875 44.046875 30.203125 44.046875  C 29.796875 44.046875 29.703125 43.953125 28.5 42.453125  C 28.203125 42.046875 27.296875 41.03125 27 40.640625  C 23.796875 44.046875 19.296875 44.046875 17.59375 44.046875  C 6.5 44.046875 2.5 38.234375 2.5 32.4375  C 2.5 23.40625 12.703125 21.328125 15.59375 20.703125  C 21.90625 19.421875 24.09375 19.015625 26.203125 17.203125  C 27.5 16.015625 29.703125 13.8125 29.703125 10.21875  C 29.703125 6 27.296875 0.59375 18.09375 0.59375  C 9.40625 0.59375 6.296875 7.1875 4.5 15.953125  C 4.203125 17.34375 4.203125 17.453125 3.40625 17.453125  C 2.59375 17.453125 2.5 17.34375 2.5 15.359375  L 2.5 0.984375  C 2.5 -0.796875 2.59375 -0.90625 3.203125 -0.90625  C 3.703125 -0.90625 3.796875 -0.796875 4.296875 0  C 4.90625 0.890625 6.40625 3.296875 7 4.3125  C 9 1.609375 12.5 -1 18.09375 -1  C 28 -1 33.296875 4.421875 33.296875 12.25  C 33.296875 17.375 30.59375 20.078125 29.296875 21.28125  C 26.296875 24.390625 22.796875 25.09375 18.59375 25.890625  C 13.09375 27.109375 6.09375 28.515625 6.09375 34.640625  C 6.09375 37.234375 7.5 42.765625 17.59375 42.765625  C 28.296875 42.765625 28.90625 32.71875 29.09375 29.5  C 29.203125 29 29.703125 28.890625 30 28.890625  C 30.90625 28.890625 30.90625 29.203125 30.90625 30.90625  z "
                 id="CMR17-115" />
              <path
                 d="M 15.09375 40  L 29.09375 40  L 29.09375 42.578125  L 15.09375 42.578125  L 15.09375 61  L 13.296875 61  C 13.09375 50.703125 9.59375 41.6875 1.09375 41.6875  L 1.09375 40  L 9.796875 40  L 9.796875 12.046875  C 9.796875 10.15625 9.796875 -1 21.40625 -1  C 27.296875 -1 30.703125 4.78125 30.703125 12.140625  L 30.703125 17.8125  L 28.90625 17.8125  L 28.90625 12.234375  C 28.90625 5.375 26.203125 0.796875 22 0.796875  C 19.09375 0.796875 15.09375 2.78125 15.09375 11.84375  z "
                 id="CMR17-116" />
              <path
                 d="M 36 25.828125  C 36 32.375 36 35.84375 31.796875 39.734375  C 28.09375 43 23.796875 44 20.40625 44  C 12.5 44 6.796875 37.609375 6.796875 30.796875  C 6.796875 27 9.796875 27 10.40625 27  C 11.703125 27 14 27.78125 14 30.53125  C 14 33 12.09375 34.078125 10.40625 34.078125  C 10 34.078125 9.5 33.96875 9.203125 33.875  C 11.296875 40.5 16.703125 42.40625 20.203125 42.40625  C 25.203125 42.40625 30.703125 37.953125 30.703125 29.453125  L 30.703125 25  C 24.796875 25 17.703125 24.203125 12.09375 21.203125  C 5.796875 17.703125 4 12.703125 4 8.90625  C 4 1.203125 13 -1 18.296875 -1  C 23.796875 -1 28.90625 2.171875 31.09375 7.984375  C 31.296875 3.640625 34.09375 -0.28125 38.5 -0.28125  C 40.59375 -0.28125 45.90625 1.09375 45.90625 8.859375  L 45.90625 14.375  L 44.09375 14.375  L 44.09375 8.78125  C 44.09375 2.78125 41.40625 2 40.09375 2  C 36 2 36 7.15625 36 11.53125  z M 30.703125 13.59375  C 30.703125 4.953125 24.5 0.59375 19 0.59375  C 14 0.59375 10.09375 4.296875 10.09375 8.90625  C 10.09375 11.890625 11.40625 17.1875 17.203125 20.390625  C 22 23.09375 27.5 23.5 30.703125 23.5  z "
                 id="CMR17-97" />
              <path
                 d="M 41.5 30.203125  C 41.5 35.296875 40.5 43.59375 28.703125 43.59375  C 20.796875 43.59375 16.703125 37.5 15.203125 33.5  L 15.09375 33.5  L 15.09375 43.59375  L 3.296875 42.5  L 3.296875 39.90625  C 9.203125 39.90625 10.09375 39.296875 10.09375 34.5  L 10.09375 6.6875  C 10.09375 2.875 9.703125 2.390625 3.296875 2.390625  L 3.296875 -0.203125  C 5.703125 0 10.09375 0 12.703125 0  C 15.296875 0 19.796875 0 22.203125 -0.203125  L 22.203125 2.390625  C 15.796875 2.390625 15.40625 2.78125 15.40625 6.6875  L 15.40625 25.90625  C 15.40625 35.109375 21 42 28 42  C 35.40625 42 36.203125 35.40625 36.203125 30.59375  L 36.203125 6.6875  C 36.203125 2.875 35.796875 2.390625 29.40625 2.390625  L 29.40625 -0.203125  C 31.796875 0 36.203125 0 38.796875 0  C 41.40625 0 45.90625 0 48.296875 -0.203125  L 48.296875 2.390625  C 41.90625 2.390625 41.5 2.78125 41.5 6.6875  z "
                 id="CMR17-110" />
              <path
                 d="M 34.90625 35  C 33 35 30.203125 35 30.203125 31.515625  C 30.203125 28.71875 32.5 27.921875 33.796875 27.921875  C 34.5 27.921875 37.40625 28.234375 37.40625 31.625  C 37.40625 38.546875 30.59375 43.796875 22.90625 43.796875  C 12.296875 43.796875 3.296875 34.03125 3.296875 21.296875  C 3.296875 8.0625 12.703125 -1 22.90625 -1  C 35.296875 -1 38.40625 10.578125 38.40625 11.6875  C 38.40625 12.09375 38.296875 12.390625 37.59375 12.390625  C 36.90625 12.390625 36.796875 12.296875 36.40625 10.984375  C 33.796875 2.8125 28.09375 0.796875 23.796875 0.796875  C 17.40625 0.796875 9.703125 6.671875 9.703125 21.390625  C 9.703125 36.53125 17.09375 42 23 42  C 26.90625 42 32.703125 40.203125 34.90625 35  z "
                 id="CMR17-99" />
              <path
                 d="M 29.203125 67.59375  L 29.203125 65  C 35.09375 65 36 64.40625 36 59.6875  L 36 36.640625  C 35.59375 37.140625 31.5 43.59375 23.40625 43.59375  C 13.203125 43.59375 3.296875 34.5 3.296875 21.3125  C 3.296875 8.203125 12.59375 -1 22.40625 -1  C 30.90625 -1 35.296875 5.265625 35.796875 5.9375  L 35.796875 -0.984375  L 47.90625 -0.984375  L 47.90625 2  C 42 2 41.09375 2.59375 41.09375 7.390625  L 41.09375 68.6875  z M 35.796875 11.796875  C 35.796875 8.796875 34 6.09375 31.703125 4.09375  C 28.296875 1.09375 24.90625 0.59375 23 0.59375  C 20.09375 0.59375 9.703125 2.09375 9.703125 21.1875  C 9.703125 40.8125 21.296875 42 23.90625 42  C 28.5 42 32.203125 39.40625 34.5 35.796875  C 35.796875 33.703125 35.796875 33.40625 35.796875 31.609375  z "
                 id="CMR17-100" />
              <path
                 d="M 38.09375 23  C 38.5 23.40625 38.5 23.609375 38.5 24.625  C 38.5 34.96875 33.09375 44 21.703125 44  C 11.09375 44 2.703125 33.890625 2.703125 21.609375  C 2.703125 8.609375 12.203125 -1 22.796875 -1  C 34 -1 38.40625 9.484375 38.40625 11.5625  C 38.40625 12.25 37.796875 12.25 37.59375 12.25  C 36.90625 12.25 36.796875 12.046875 36.40625 10.875  C 34.203125 4.140625 28.703125 0.796875 23.5 0.796875  C 19.203125 0.796875 14.90625 3.171875 12.203125 7.5  C 9.09375 12.546875 9.09375 18.375 9.09375 23  z M 9.203125 24.5  C 9.90625 39.140625 17.59375 42.40625 21.59375 42.40625  C 28.40625 42.40625 33 35.890625 33.09375 24.5  z "
                 id="CMR17-101" />
              <path
                 d="M 15.296875 68.6875  L 3.40625 67.59375  L 3.40625 65  C 9.296875 65 10.203125 64.40625 10.203125 59.640625  L 10.203125 6.65625  C 10.203125 2.875 9.796875 2.390625 3.40625 2.390625  L 3.40625 -0.203125  C 5.796875 0 10.203125 0 12.703125 0  C 15.296875 0 19.703125 0 22.09375 -0.203125  L 22.09375 2.390625  C 15.703125 2.390625 15.296875 2.78125 15.296875 6.65625  z "
                 id="CMR17-108" />
              <path
                 d="M 41.09375 43.78125  L 39.5 43.78125  L 36.5 33.9375  C 34.203125 39.203125 30 43.78125 23.296875 43.78125  C 13.09375 43.78125 3.296875 34.734375 3.296875 21.609375  C 3.296875 8.5625 12.5 -0.59375 22.5 -0.59375  C 30.203125 -0.59375 34.5 5.28125 35.796875 7.46875  L 35.796875 -12.328125  C 35.796875 -16.109375 35.40625 -16.609375 29 -16.609375  L 29 -19.1875  C 31.40625 -19 35.796875 -19 38.40625 -19  C 41 -19 45.5 -19 47.90625 -19.1875  L 47.90625 -16.609375  C 41.5 -16.609375 41.09375 -16.203125 41.09375 -12.328125  z M 36 13.84375  C 36 9.5625 32.40625 5.578125 32.09375 5.28125  C 29 1.796875 25.40625 1 23 1  C 15.5 1 9.703125 10.453125 9.703125 21.484375  C 9.703125 33.140625 16.296875 42 24 42  C 32 42 36 32.9375 36 27.765625  z "
                 id="CMR17-113" />
              <path
                 d="M 29.40625 42.078125  L 29.40625 39.5  C 35.296875 39.5 36.203125 38.890625 36.203125 34.15625  L 36.203125 16.125  C 36.203125 7.8125 31.703125 0.59375 24.296875 0.59375  C 16.09375 0.59375 15.40625 5.4375 15.40625 10.59375  L 15.40625 43.171875  L 3.296875 42.078125  L 3.296875 39.5  C 7.296875 39.5 10 39.5 10.09375 35.53125  L 10.09375 16.53125  C 10.09375 9.890625 10.09375 5.640625 12.703125 2.859375  C 14 1.578125 16.5 -1 23.703125 -1  C 32.203125 -1 35.5 5.890625 36.296875 7.90625  L 36.40625 7.90625  L 36.40625 -0.984375  L 48.296875 -0.984375  L 48.296875 2  C 42.40625 2 41.5 2.59375 41.5 7.390625  L 41.5 43.171875  z "
                 id="CMR17-117" />
              <path
                 d="M 15 68.6875  L 3.09375 67.59375  L 3.09375 65  C 9 65 9.90625 64.40625 9.90625 59.640625  L 9.90625 -0.203125  L 11.703125 -0.203125  L 14.59375 6.890625  C 17.5 2.203125 21.796875 -1 27.59375 -1  C 37.59375 -1 47.703125 7.8125 47.703125 21.40625  C 47.703125 34.1875 38.703125 43.59375 28.59375 43.59375  C 22.40625 43.59375 18 40.296875 15 36.40625  z M 15.203125 31.3125  C 15.203125 33.09375 15.203125 33.40625 16.59375 35.5  C 20.5 41.515625 26.09375 42 28 42  C 31 42 41.296875 40.390625 41.296875 21.5  C 41.296875 1.6875 29.5 0.59375 27.09375 0.59375  C 24 0.59375 19.5 1.78125 16.296875 7.59375  C 15.203125 9.5 15.203125 9.703125 15.203125 11.484375  z "
                 id="CMR17-98" />
              <path
                 d="M 15 23.390625  C 15 33 19.09375 42 26.59375 42  C 27.296875 42 28 41.90625 28.703125 41.59375  C 28.703125 41.59375 26.5 40.890625 26.5 38.3125  C 26.5 35.90625 28.40625 34.90625 29.90625 34.90625  C 31.09375 34.90625 33.296875 35.609375 33.296875 38.40625  C 33.296875 41.609375 30.09375 43.59375 26.703125 43.59375  C 19.09375 43.59375 15.796875 36.203125 14.796875 32.703125  L 14.703125 32.703125  L 14.703125 43.59375  L 3.09375 42.5  L 3.09375 39.90625  C 9 39.90625 9.90625 39.296875 9.90625 34.5  L 9.90625 6.6875  C 9.90625 2.875 9.5 2.390625 3.09375 2.390625  L 3.09375 -0.203125  C 5.5 0 10.09375 0 12.703125 0  C 15.59375 0 20.703125 0 23.40625 -0.203125  L 23.40625 2.390625  C 16.203125 2.390625 15 2.390625 15 6.875  z "
                 id="CMR17-114" />
              <path
                 d="M 43.09375 21.1875  C 43.09375 34 33.796875 44 22.90625 44  C 12 44 2.703125 34 2.703125 21.1875  C 2.703125 8.609375 12 -1 22.90625 -1  C 33.796875 -1 43.09375 8.609375 43.09375 21.1875  z M 22.90625 0.796875  C 18.203125 0.796875 14.203125 3.59375 11.90625 7.5  C 9.40625 11.984375 9.09375 17.59375 9.09375 22  C 9.09375 26.203125 9.296875 31.40625 11.90625 35.90625  C 13.90625 39.203125 17.796875 42.40625 22.90625 42.40625  C 27.40625 42.40625 31.203125 39.90625 33.59375 36.40625  C 36.703125 31.703125 36.703125 25.109375 36.703125 22  C 36.703125 18.09375 36.5 12.109375 33.796875 7.296875  C 31 2.703125 26.703125 0.796875 22.90625 0.796875  z "
                 id="CMR17-111" />
              <path
                 d="M 15.796875 1.59375  C 16 0.703125 16 0.390625 16 -1.203125  C 16 -7.234375 14 -12.765625 9.796875 -17.796875  C 9.296875 -18.28125 9.296875 -18.484375 9.296875 -18.703125  C 9.296875 -19.09375 9.703125 -19.5 10.09375 -19.5  C 10.703125 -19.5 17.59375 -12.484375 17.59375 -1.359375  C 17.59375 1.9375 17.203125 8.15625 12.5 8.15625  C 10.296875 8.15625 8.40625 6.671875 8.40625 4.078125  C 8.40625 1.5 10.296875 0 12.5 0  C 13.703125 0 15 0.5 15.796875 1.59375  z "
                 id="CMR17-44" />
              <path
                 d="M 26.09375 -0.375  L 15.59375 3.78125  C 13 4.75 7 7.125 7 13.046875  C 7 21.515625 17.5 30.109375 19.59375 30.109375  C 19.796875 30.109375 20.703125 29.90625 21 29.8125  C 23.703125 29.015625 26.296875 29.015625 28.09375 29.015625  C 31.203125 29.015625 37.09375 29.015625 37.09375 32.21875  C 37.09375 34.65625 33.5 35 29.203125 35  C 27.203125 35 24.5 35 20.90625 33.796875  C 18.5 35.8125 17.5 39 17.5 42.03125  C 17.5 47.53125 21.09375 55.34375 29 59.0625  C 30.796875 57 33.203125 57 35.296875 57  C 37.796875 57 43.90625 57 43.90625 59.6875  C 43.90625 62 39.09375 62 35.90625 62  C 33.90625 62 32.40625 62 29.59375 61.5  C 29.09375 62.671875 29 62.875 29 65.046875  C 29 66.828125 29.40625 68.21875 29.40625 68.5  C 29.40625 69.09375 28.90625 69.5 28.40625 69.5  C 26.796875 69.5 26.796875 65.84375 26.796875 65.046875  C 26.796875 63.671875 26.90625 62.28125 27.5 61  C 15.5 57.484375 10.203125 48.953125 10.203125 42.4375  C 10.203125 36.40625 14.203125 33.09375 16.90625 31.578125  C 6.59375 26.046875 2.203125 15.953125 2.203125 10.609375  C 2.203125 2 10.09375 -1.078125 13.703125 -2.5625  L 22.703125 -6.125  C 25.203125 -7.015625 29.296875 -8.6875 30 -9.09375  C 31 -9.78125 31.796875 -10.984375 31.796875 -12.5625  C 31.796875 -14.640625 30.203125 -18 26.703125 -18  C 25.203125 -18 21.90625 -17.609375 18.296875 -14.921875  C 17.59375 -14.3125 17.5 -14.21875 17.09375 -14.21875  C 16.59375 -14.21875 16.09375 -14.625 16.09375 -15.21875  C 16.09375 -16.3125 21.296875 -20 26.703125 -20  C 33.09375 -20 37 -13.890625 37 -9.640625  C 37 -6.578125 35.296875 -4.125 32.09375 -2.734375  z M 31.203125 59.640625  C 32.90625 60 34.703125 60 36 60  C 39.296875 60 39.59375 59.9375 41.59375 59.5625  C 40.40625 59.203125 39.59375 58.984375 35.40625 58.984375  C 33.5 58.984375 32.296875 58.984375 31.203125 59.640625  z M 23.296875 32.140625  C 25.703125 33 27.90625 33 29.09375 33  C 32.40625 33 32.59375 32.859375 34.796875 32.140625  C 33.703125 31.421875 32.796875 31 28.5 31  C 26.09375 31 25.09375 31 23.296875 32.140625  z "
                 id="CMMI12-24" />
              <path
                 d="M 30.59375 -24.390625  C 30.59375 -24.296875 30.59375 -24.09375 30.296875 -23.796875  C 25.703125 -19.125 13.40625 -6.359375 13.40625 24.703125  C 13.40625 55.765625 25.5 68.421875 30.40625 73.390625  C 30.40625 73.5 30.59375 73.703125 30.59375 74  C 30.59375 74.296875 30.296875 74.5 29.90625 74.5  C 28.796875 74.5 20.296875 67.125 15.40625 56.15625  C 10.40625 45.109375 9 34.359375 9 24.8125  C 9 17.625 9.703125 5.484375 15.703125 -7.359375  C 20.5 -17.734375 28.703125 -25 29.90625 -25  C 30.40625 -25 30.59375 -24.796875 30.59375 -24.390625  z "
                 id="CMR17-40" />
              <path
                 d="M 43.296875 61.796875  C 43.296875 66.796875 39.296875 70.59375 34.59375 70.59375  C 29.90625 70.59375 25.90625 66.796875 25.90625 61.796875  C 25.90625 56.796875 29.90625 53 34.59375 53  C 39.296875 53 43.296875 56.796875 43.296875 61.796875  z M 34.59375 54.59375  C 30.40625 54.59375 27.703125 57.1875 27.703125 61.8125  C 27.703125 66.5 30.5 69 34.59375 69  C 38.796875 69 41.5 66.40625 41.5 61.8125  C 41.5 57.09375 38.703125 54.59375 34.59375 54.59375  z "
                 id="CMR17-23" />
              <path
                 d="M 17 10.796875  C 13.5 4.90625 10.09375 2.90625 5.296875 2.90625  C 4.203125 2.8125 3.40625 2.8125 3.40625 0.90625  C 3.40625 0.375 3.90625 0 4.59375 0  C 6.40625 0 10.90625 0 12.703125 0  C 15.59375 0 18.796875 0 21.59375 0  C 22.203125 0 23.40625 0 23.40625 1.90625  C 23.40625 2.8125 22.59375 2.90625 22 2.90625  C 19.703125 2.90625 17.796875 3.6875 17.796875 6.0625  C 17.796875 7.4375 18.40625 8.53125 19.703125 10.703125  L 27.296875 23.109375  L 52.796875 23.109375  C 52.90625 22.234375 52.90625 21.453125 53 20.5625  C 53.296875 18 54.5 7.734375 54.5 5.875  C 54.5 2.90625 49.40625 2.90625 47.796875 2.90625  C 46.703125 2.90625 45.59375 2.90625 45.59375 1.09375  C 45.59375 0 46.5 0 47.09375 0  C 48.796875 0 50.796875 0 52.5 0  L 58.203125 0  C 64.296875 0 68.703125 0 68.796875 0  C 69.5 0 70.59375 0 70.59375 1.90625  C 70.59375 2.90625 69.703125 2.90625 68.203125 2.90625  C 62.703125 2.90625 62.59375 3.8125 62.296875 6.78125  L 56.203125 68.8125  C 56 70.796875 55.59375 71 54.5 71  C 53.5 71 52.90625 70.796875 52 69.296875  z M 29 26  L 49.09375 59.671875  L 52.5 26  z "
                 id="CMMI12-65" />
              <path
                 d="M 26.296875 24.703125  C 26.296875 31.875 25.59375 44.015625 19.59375 56.859375  C 14.796875 67.234375 6.59375 74.5 5.40625 74.5  C 5.09375 74.5 4.703125 74.390625 4.703125 73.890625  C 4.703125 73.703125 4.796875 73.59375 4.90625 73.390625  C 9.703125 68.40625 21.90625 55.75 21.90625 24.75  C 21.90625 -6.359375 9.796875 -19.015625 4.90625 -24.015625  C 4.796875 -24.203125 4.703125 -24.3125 4.703125 -24.5  C 4.703125 -25 5.09375 -25 5.40625 -25  C 6.5 -25 15 -17.625 19.90625 -6.65625  C 24.90625 4.390625 26.296875 15.140625 26.296875 24.703125  z "
                 id="CMR17-41" />
            </defs>
            <use
               transform="scale(0.996264)"
               xlink:href="#CMR17-68"
               id="use398" />
            <use
               transform="translate(70.393556 0)scale(0.996264)"
               xlink:href="#CMR17-105"
               id="use400" />
            <use
               transform="translate(95.264614 0)scale(0.996264)"
               xlink:href="#CMR17-115"
               id="use402" />
            <use
               transform="translate(131.065952 0)scale(0.996264)"
               xlink:href="#CMR17-116"
               id="use404" />
            <use
               transform="translate(166.34672 0)scale(0.996264)"
               xlink:href="#CMR17-97"
               id="use406" />
            <use
               transform="translate(212.037197 0)scale(0.996264)"
               xlink:href="#CMR17-110"
               id="use408" />
            <use
               transform="translate(262.932567 0)scale(0.996264)"
               xlink:href="#CMR17-99"
               id="use410" />
            <use
               transform="translate(303.418227 0)scale(0.996264)"
               xlink:href="#CMR17-105"
               id="use412" />
            <use
               transform="translate(328.289286 0)scale(0.996264)"
               xlink:href="#CMR17-97"
               id="use414" />
            <use
               transform="translate(404.055729 0)scale(0.996264)"
               xlink:href="#CMR17-100"
               id="use416" />
            <use
               transform="translate(454.951099 0)scale(0.996264)"
               xlink:href="#CMR17-101"
               id="use418" />
            <use
               transform="translate(495.436759 0)scale(0.996264)"
               xlink:href="#CMR17-108"
               id="use420" />
            <use
               transform="translate(550.383784 0)scale(0.996264)"
               xlink:href="#CMR17-101"
               id="use422" />
            <use
               transform="translate(590.869445 0)scale(0.996264)"
               xlink:href="#CMR17-113"
               id="use424" />
            <use
               transform="translate(639.162361 0)scale(0.996264)"
               xlink:href="#CMR17-117"
               id="use426" />
            <use
               transform="translate(690.05773 0)scale(0.996264)"
               xlink:href="#CMR17-105"
               id="use428" />
            <use
               transform="translate(714.928789 0)scale(0.996264)"
               xlink:href="#CMR17-108"
               id="use430" />
            <use
               transform="translate(739.799847 0)scale(0.996264)"
               xlink:href="#CMR17-105"
               id="use432" />
            <use
               transform="translate(764.670906 0)scale(0.996264)"
               xlink:href="#CMR17-98"
               id="use434" />
            <use
               transform="translate(815.566276 0)scale(0.996264)"
               xlink:href="#CMR17-114"
               id="use436" />
            <use
               transform="translate(850.847043 0)scale(0.996264)"
               xlink:href="#CMR17-105"
               id="use438" />
            <use
               transform="translate(875.718102 0)scale(0.996264)"
               xlink:href="#CMR17-111"
               id="use440" />
            <use
               transform="translate(921.408579 0)scale(0.996264)"
               xlink:href="#CMR17-44"
               id="use442" />
            <use
               transform="translate(976.355604 0)scale(0.996264)"
               xlink:href="#CMMI12-24"
               id="use444" />
            <use
               transform="translate(1023.775937 0)scale(0.996264)"
               xlink:href="#CMR17-40"
               id="use446" />
            <use
               transform="matrix(0.996264,0,0,0.996264,1079.0125,24.523573)"
               xlink:href="#CMR17-23"
               id="use448"
               x="0"
               y="0"
               width="100%"
               height="100%" />
            <use
               transform="translate(1059.056705 0)scale(0.996264)"
               xlink:href="#CMMI12-65"
               id="use450" />
            <use
               transform="translate(1132.18459 0)scale(0.996264)"
               xlink:href="#CMR17-41"
               id="use452" />
            <text
               xml:space="preserve"
               style="font-style:normal;font-weight:normal;font-size:166.667px;line-height:1.25;font-family:sans-serif;fill:#000000;fill-opacity:1;stroke:none;stroke-width:4.16667"
               x="739.05853"
               y="-896.47449"
               id="text2426"
               transform="scale(1,-1)"><tspan
                 sodipodi:role="line"
                 id="tspan2424"
                 style="stroke-width:4.16667"></tspan></text>
          </g>
        </g>
      </g>
      <g
         id="matplotlib.axis_2">
        <g
           id="ytick_1">
          <g
             id="line2d_61">
            <path
               clip-path="url(#p9e5dc59fdd)"
               d="M 76.285402 233.90412  L 411.085402 233.90412  "
               style="fill:none;stroke:#b0b0b0;stroke-linecap:square;stroke-width:0.8;"
               id="path458" />
          </g>
          <g
             id="line2d_62">
            <defs
               id="defs462">
              <path
                 d="M 0 0  L -3.5 0  "
                 id="ma13c7ec31f"
                 style="stroke:#000000;stroke-width:0.8;" />
            </defs>
            <g
               id="g466">
              <use
                 style="stroke:#000000;stroke-width:0.8;"
                 x="76.285402"
                 xlink:href="#ma13c7ec31f"
                 y="233.90412"
                 id="use464" />
            </g>
          </g>
          <g
             id="text_8">
            <!-- $\mathdefault{0}$ -->
            <g
               transform="translate(61.481415 239.438914)scale(0.16 -0.16)"
               id="g471">
              <use
                 transform="scale(0.996264)"
                 xlink:href="#CMR17-48"
                 id="use469" />
            </g>
          </g>
        </g>
        <g
           id="ytick_2">
          <g
             id="line2d_63">
            <path
               clip-path="url(#p9e5dc59fdd)"
               d="M 76.285402 163.855143  L 411.085402 163.855143  "
               style="fill:none;stroke:#b0b0b0;stroke-linecap:square;stroke-width:0.8;"
               id="path475" />
          </g>
          <g
             id="line2d_64">
            <g
               id="g480">
              <use
                 style="stroke:#000000;stroke-width:0.8;"
                 x="76.285402"
                 xlink:href="#ma13c7ec31f"
                 y="163.855143"
                 id="use478" />
            </g>
          </g>
          <g
             id="text_9">
            <!-- $\mathdefault{20000}$ -->
            <g
               transform="translate(30.265467 169.389937)scale(0.16 -0.16)"
               id="g493">
              <use
                 transform="scale(0.996264)"
                 xlink:href="#CMR17-50"
                 id="use483" />
              <use
                 transform="translate(45.690477 0)scale(0.996264)"
                 xlink:href="#CMR17-48"
                 id="use485" />
              <use
                 transform="translate(91.380954 0)scale(0.996264)"
                 xlink:href="#CMR17-48"
                 id="use487" />
              <use
                 transform="translate(137.071431 0)scale(0.996264)"
                 xlink:href="#CMR17-48"
                 id="use489" />
              <use
                 transform="translate(182.761908 0)scale(0.996264)"
                 xlink:href="#CMR17-48"
                 id="use491" />
            </g>
          </g>
        </g>
        <g
           id="ytick_3">
          <g
             id="line2d_65">
            <path
               clip-path="url(#p9e5dc59fdd)"
               d="M 76.285402 93.806166  L 411.085402 93.806166  "
               style="fill:none;stroke:#b0b0b0;stroke-linecap:square;stroke-width:0.8;"
               id="path497" />
          </g>
          <g
             id="line2d_66">
            <g
               id="g502">
              <use
                 style="stroke:#000000;stroke-width:0.8;"
                 x="76.285402"
                 xlink:href="#ma13c7ec31f"
                 y="93.806166"
                 id="use500" />
            </g>
          </g>
          <g
             id="text_10">
            <!-- $\mathdefault{40000}$ -->
            <g
               transform="translate(30.265467 99.34096)scale(0.16 -0.16)"
               id="g515">
              <use
                 transform="scale(0.996264)"
                 xlink:href="#CMR17-52"
                 id="use505" />
              <use
                 transform="translate(45.690477 0)scale(0.996264)"
                 xlink:href="#CMR17-48"
                 id="use507" />
              <use
                 transform="translate(91.380954 0)scale(0.996264)"
                 xlink:href="#CMR17-48"
                 id="use509" />
              <use
                 transform="translate(137.071431 0)scale(0.996264)"
                 xlink:href="#CMR17-48"
                 id="use511" />
              <use
                 transform="translate(182.761908 0)scale(0.996264)"
                 xlink:href="#CMR17-48"
                 id="use513" />
            </g>
          </g>
        </g>
        <g
           id="ytick_4">
          <g
             id="line2d_67">
            <path
               clip-path="url(#p9e5dc59fdd)"
               d="M 76.285402 216.391876  L 411.085402 216.391876  "
               style="fill:none;stroke:#b0b0b0;stroke-dasharray:5.12,1.28,0.8,1.28;stroke-dashoffset:0;stroke-opacity:0.4;stroke-width:0.8;"
               id="path519" />
          </g>
          <g
             id="line2d_68">
            <defs
               id="defs523">
              <path
                 d="M 0 0  L -2 0  "
                 id="m0cd98ffcdf"
                 style="stroke:#000000;stroke-width:0.6;" />
            </defs>
            <g
               id="g527">
              <use
                 style="stroke:#000000;stroke-width:0.6;"
                 x="76.285402"
                 xlink:href="#m0cd98ffcdf"
                 y="216.391876"
                 id="use525" />
            </g>
          </g>
        </g>
        <g
           id="ytick_5">
          <g
             id="line2d_69">
            <path
               clip-path="url(#p9e5dc59fdd)"
               d="M 76.285402 198.879632  L 411.085402 198.879632  "
               style="fill:none;stroke:#b0b0b0;stroke-dasharray:5.12,1.28,0.8,1.28;stroke-dashoffset:0;stroke-opacity:0.4;stroke-width:0.8;"
               id="path531" />
          </g>
          <g
             id="line2d_70">
            <g
               id="g536">
              <use
                 style="stroke:#000000;stroke-width:0.6;"
                 x="76.285402"
                 xlink:href="#m0cd98ffcdf"
                 y="198.879632"
                 id="use534" />
            </g>
          </g>
        </g>
        <g
           id="ytick_6">
          <g
             id="line2d_71">
            <path
               clip-path="url(#p9e5dc59fdd)"
               d="M 76.285402 181.367387  L 411.085402 181.367387  "
               style="fill:none;stroke:#b0b0b0;stroke-dasharray:5.12,1.28,0.8,1.28;stroke-dashoffset:0;stroke-opacity:0.4;stroke-width:0.8;"
               id="path540" />
          </g>
          <g
             id="line2d_72">
            <g
               id="g545">
              <use
                 style="stroke:#000000;stroke-width:0.6;"
                 x="76.285402"
                 xlink:href="#m0cd98ffcdf"
                 y="181.367387"
                 id="use543" />
            </g>
          </g>
        </g>
        <g
           id="ytick_7">
          <g
             id="line2d_73">
            <path
               clip-path="url(#p9e5dc59fdd)"
               d="M 76.285402 146.342899  L 411.085402 146.342899  "
               style="fill:none;stroke:#b0b0b0;stroke-dasharray:5.12,1.28,0.8,1.28;stroke-dashoffset:0;stroke-opacity:0.4;stroke-width:0.8;"
               id="path549" />
          </g>
          <g
             id="line2d_74">
            <g
               id="g554">
              <use
                 style="stroke:#000000;stroke-width:0.6;"
                 x="76.285402"
                 xlink:href="#m0cd98ffcdf"
                 y="146.342899"
                 id="use552" />
            </g>
          </g>
        </g>
        <g
           id="ytick_8">
          <g
             id="line2d_75">
            <path
               clip-path="url(#p9e5dc59fdd)"
               d="M 76.285402 128.830655  L 411.085402 128.830655  "
               style="fill:none;stroke:#b0b0b0;stroke-dasharray:5.12,1.28,0.8,1.28;stroke-dashoffset:0;stroke-opacity:0.4;stroke-width:0.8;"
               id="path558" />
          </g>
          <g
             id="line2d_76">
            <g
               id="g563">
              <use
                 style="stroke:#000000;stroke-width:0.6;"
                 x="76.285402"
                 xlink:href="#m0cd98ffcdf"
                 y="128.830655"
                 id="use561" />
            </g>
          </g>
        </g>
        <g
           id="ytick_9">
          <g
             id="line2d_77">
            <path
               clip-path="url(#p9e5dc59fdd)"
               d="M 76.285402 111.31841  L 411.085402 111.31841  "
               style="fill:none;stroke:#b0b0b0;stroke-dasharray:5.12,1.28,0.8,1.28;stroke-dashoffset:0;stroke-opacity:0.4;stroke-width:0.8;"
               id="path567" />
          </g>
          <g
             id="line2d_78">
            <g
               id="g572">
              <use
                 style="stroke:#000000;stroke-width:0.6;"
                 x="76.285402"
                 xlink:href="#m0cd98ffcdf"
                 y="111.31841"
                 id="use570" />
            </g>
          </g>
        </g>
        <g
           id="ytick_10">
          <g
             id="line2d_79">
            <path
               clip-path="url(#p9e5dc59fdd)"
               d="M 76.285402 76.293922  L 411.085402 76.293922  "
               style="fill:none;stroke:#b0b0b0;stroke-dasharray:5.12,1.28,0.8,1.28;stroke-dashoffset:0;stroke-opacity:0.4;stroke-width:0.8;"
               id="path576" />
          </g>
          <g
             id="line2d_80">
            <g
               id="g581">
              <use
                 style="stroke:#000000;stroke-width:0.6;"
                 x="76.285402"
                 xlink:href="#m0cd98ffcdf"
                 y="76.293922"
                 id="use579" />
            </g>
          </g>
        </g>
        <g
           id="ytick_11">
          <g
             id="line2d_81">
            <path
               clip-path="url(#p9e5dc59fdd)"
               d="M 76.285402 58.781678  L 411.085402 58.781678  "
               style="fill:none;stroke:#b0b0b0;stroke-dasharray:5.12,1.28,0.8,1.28;stroke-dashoffset:0;stroke-opacity:0.4;stroke-width:0.8;"
               id="path585" />
          </g>
          <g
             id="line2d_82">
            <g
               id="g590">
              <use
                 style="stroke:#000000;stroke-width:0.6;"
                 x="76.285402"
                 xlink:href="#m0cd98ffcdf"
                 y="58.781678"
                 id="use588" />
            </g>
          </g>
        </g>
        <g
           id="ytick_12">
          <g
             id="line2d_83">
            <path
               clip-path="url(#p9e5dc59fdd)"
               d="M 76.285402 41.269434  L 411.085402 41.269434  "
               style="fill:none;stroke:#b0b0b0;stroke-dasharray:5.12,1.28,0.8,1.28;stroke-dashoffset:0;stroke-opacity:0.4;stroke-width:0.8;"
               id="path594" />
          </g>
          <g
             id="line2d_84">
            <g
               id="g599">
              <use
                 style="stroke:#000000;stroke-width:0.6;"
                 x="76.285402"
                 xlink:href="#m0cd98ffcdf"
                 y="41.269434"
                 id="use597" />
            </g>
          </g>
        </g>
        <g
           id="text_11">
          <!-- Energa, E (cm$^{-1}$) -->
          <g
             transform="translate(21.797284 200.965529)rotate(-90)scale(0.18 -0.18)"
             id="g643">
            <defs
               id="defs609">
              <path
                 d="M 60.703125 25.234375  L 58.90625 25.234375  C 56.703125 10.5625 55.40625 2.59375 37.796875 2.59375  L 23.90625 2.59375  C 19.90625 2.59375 19.703125 3.078125 19.703125 6.46875  L 19.703125 34  L 29.09375 34  C 38.5 34 39.40625 30.625 39.40625 22.34375  L 41.203125 22.34375  L 41.203125 48.140625  L 39.40625 48.140625  C 39.40625 39.953125 38.5 36.59375 29.09375 36.59375  L 19.703125 36.59375  L 19.703125 61.140625  C 19.703125 64.5 19.90625 65 23.90625 65  L 37.59375 65  C 53.09375 65 54.90625 58.890625 56.296875 45.765625  L 58.09375 45.765625  L 55.703125 67.578125  L 5.09375 67.578125  L 5.09375 65  C 12 65 13.09375 65 13.09375 60.53125  L 13.09375 7.046875  C 13.09375 2.59375 12 2.59375 5.09375 2.59375  L 5.09375 0  L 57.09375 0  z "
                 id="CMR17-69" />
              <path
                 d="M 11.09375 18.1875  C 13 16.6875 16.296875 15 20.296875 15  C 28.203125 15 35 21.203125 35 29.5  C 35 32.09375 34.203125 36.09375 31.203125 39.203125  C 34 42.0625 38.09375 43 40.40625 43  C 40.796875 43 41.40625 43 41.90625 42.71875  C 41.5 42.625 40.59375 42.234375 40.59375 40.703125  C 40.59375 39.484375 41.5 38.609375 42.796875 38.609375  C 44.296875 38.609375 45.09375 39.578125 45.09375 40.84375  C 45.09375 42.671875 43.59375 44.59375 40.40625 44.59375  C 36.40625 44.59375 32.90625 42.78125 30.09375 40.3125  C 27.09375 43.015625 23.5 44 20.296875 44  C 12.40625 44 5.59375 37.796875 5.59375 29.5  C 5.59375 23.78125 8.90625 20.1875 9.90625 19.1875  C 6.90625 15.6875 6.90625 11.609375 6.90625 11.109375  C 6.90625 8.515625 7.90625 4.71875 11.296875 2.625  C 6.09375 1.328125 2 -2.640625 2 -7.59375  C 2 -14.734375 11.5 -20 22.90625 -20  C 33.90625 -20 43.796875 -14.9375 43.796875 -7.484375  C 43.796875 6 29 6 21.296875 6  C 19 6 14.90625 6 14.40625 6.109375  C 11.296875 6.609375 9.203125 9.40625 9.203125 12.90625  C 9.203125 13.796875 9.203125 16 11.09375 18.1875  z M 20.296875 16.6875  C 11.5 16.6875 11.5 27.5 11.5 29.515625  C 11.5 31.5 11.5 42.3125 20.296875 42.3125  C 29.09375 42.3125 29.09375 31.5 29.09375 29.515625  C 29.09375 27.5 29.09375 16.6875 20.296875 16.6875  z M 22.90625 -18.296875  C 12.90625 -18.296875 6 -13.046875 6 -7.59375  C 6 -4.515625 7.703125 -1.640625 9.90625 -0.0625  C 12.40625 1.625 13.40625 1.625 20.203125 1.625  C 28.40625 1.625 39.796875 1.625 39.796875 -7.59375  C 39.796875 -13.046875 32.90625 -18.296875 22.90625 -18.296875  z "
                 id="CMR17-103" />
              <path
                 d="M 34.703125 63.921875  C 35.90625 65.015625 36.203125 65.21875 36.203125 66.3125  C 36.203125 67.796875 34.90625 69 33.5 69  C 32.296875 69 31.90625 68.5 30.90625 67.3125  L 19.59375 52.96875  C 18.90625 52.078125 18.90625 51.984375 18.90625 51.875  C 18.90625 51.78125 19.796875 50.875 20 50.6875  z "
                 id="CMR17-19" />
              <path
                 d="M 15.296875 43.171875  L 3.796875 42.078125  L 3.796875 39.5  C 9.40625 39.5 10.203125 38.890625 10.203125 34.15625  L 10.203125 6.640625  C 10.203125 2.875 9.796875 2.390625 3.40625 2.390625  L 3.40625 -0.203125  C 5.796875 0 10.09375 0 12.59375 0  C 15 0 19.09375 0 21.40625 -0.203125  L 21.40625 2.390625  C 15.5 2.390625 15.296875 2.984375 15.296875 6.546875  z "
                 id="CMR17-16" />
              <path
                 d="M 67.59375 30.203125  C 67.59375 35.1875 66.703125 43.59375 54.796875 43.59375  C 48 43.59375 43.296875 39 41.5 33.609375  L 41.40625 33.609375  C 40.203125 41.8125 34.296875 43.59375 28.703125 43.59375  C 20.796875 43.59375 16.703125 37.5 15.203125 33.5  L 15.09375 33.5  L 15.09375 43.59375  L 3.296875 42.5  L 3.296875 39.90625  C 9.203125 39.90625 10.09375 39.296875 10.09375 34.5  L 10.09375 6.6875  C 10.09375 2.875 9.703125 2.390625 3.296875 2.390625  L 3.296875 -0.203125  C 5.703125 0 10.09375 0 12.703125 0  C 15.296875 0 19.796875 0 22.203125 -0.203125  L 22.203125 2.390625  C 15.796875 2.390625 15.40625 2.78125 15.40625 6.6875  L 15.40625 25.90625  C 15.40625 35.109375 21 42 28 42  C 35.40625 42 36.203125 35.40625 36.203125 30.59375  L 36.203125 6.6875  C 36.203125 2.875 35.796875 2.390625 29.40625 2.390625  L 29.40625 -0.203125  C 31.796875 0 36.203125 0 38.796875 0  C 41.40625 0 45.90625 0 48.296875 -0.203125  L 48.296875 2.390625  C 41.90625 2.390625 41.5 2.78125 41.5 6.6875  L 41.5 25.90625  C 41.5 35.109375 47.09375 42 54.09375 42  C 61.5 42 62.296875 35.40625 62.296875 30.59375  L 62.296875 6.6875  C 62.296875 2.875 61.90625 2.390625 55.5 2.390625  L 55.5 -0.203125  C 57.90625 0 62.296875 0 64.90625 0  C 67.5 0 72 0 74.40625 -0.203125  L 74.40625 2.390625  C 68 2.390625 67.59375 2.78125 67.59375 6.6875  z "
                 id="CMR17-109" />
              <path
                 d="M 65.90625 23  C 67.59375 23 69.40625 23 69.40625 25  C 69.40625 27 67.59375 27 65.90625 27  L 11.796875 27  C 10.09375 27 8.296875 27 8.296875 25  C 8.296875 23 10.09375 23 11.796875 23  z "
                 id="CMSY10-0" />
            </defs>
            <use
               transform="scale(0.996264)"
               xlink:href="#CMR17-69"
               id="use611" />
            <use
               transform="translate(62.586301 0)scale(0.996264)"
               xlink:href="#CMR17-110"
               id="use613" />
            <use
               transform="translate(113.48167 0)scale(0.996264)"
               xlink:href="#CMR17-101"
               id="use615" />
            <use
               transform="translate(153.967331 0)scale(0.996264)"
               xlink:href="#CMR17-114"
               id="use617" />
            <use
               transform="translate(189.248099 0)scale(0.996264)"
               xlink:href="#CMR17-103"
               id="use619" />
            <use
               transform="translate(224.528866 0)scale(0.996264)"
               xlink:href="#CMR17-19"
               id="use621" />
            <use
               transform="translate(234.938576 0)scale(0.996264)"
               xlink:href="#CMR17-16"
               id="use623" />
            <use
               transform="translate(259.809634 0)scale(0.996264)"
               xlink:href="#CMR17-97"
               id="use625" />
            <use
               transform="translate(305.500111 0)scale(0.996264)"
               xlink:href="#CMR17-44"
               id="use627" />
            <use
               transform="translate(360.447136 0)scale(0.996264)"
               xlink:href="#CMR17-69"
               id="use629" />
            <use
               transform="translate(453.109403 0)scale(0.996264)"
               xlink:href="#CMR17-40"
               id="use631" />
            <use
               transform="translate(488.390171 0)scale(0.996264)"
               xlink:href="#CMR17-99"
               id="use633" />
            <use
               transform="translate(528.875831 0)scale(0.996264)"
               xlink:href="#CMR17-109"
               id="use635" />
            <use
               transform="translate(605.795421 36.153639)scale(0.697382)"
               xlink:href="#CMSY10-0"
               id="use637" />
            <use
               transform="translate(660.036414 36.153639)scale(0.697382)"
               xlink:href="#CMR17-49"
               id="use639" />
            <use
               transform="translate(692.517728 0)scale(0.996264)"
               xlink:href="#CMR17-41"
               id="use641" />
          </g>
        </g>
      </g>
      <g
         id="LineCollection_1">
        <path
           clip-path="url(#p9e5dc59fdd)"
           d="M 106.97769 228.715067  L 116.763231 228.715067  "
           style="fill:none;stroke:#000000;"
           id="path647" />
      </g>
      <g
         id="LineCollection_2">
        <path
           clip-path="url(#p9e5dc59fdd)"
           d="M 104.204242 218.60805  L 121.40662 218.60805  "
           style="fill:none;stroke:#000000;"
           id="path650" />
      </g>
      <g
         id="LineCollection_3">
        <path
           clip-path="url(#p9e5dc59fdd)"
           d="M 102.499648 208.862486  L 125.050524 208.862486  "
           style="fill:none;stroke:#000000;"
           id="path653" />
      </g>
      <g
         id="LineCollection_4">
        <path
           clip-path="url(#p9e5dc59fdd)"
           d="M 101.228023 199.478375  L 128.336174 199.478375  "
           style="fill:none;stroke:#000000;"
           id="path656" />
      </g>
      <g
         id="LineCollection_5">
        <path
           clip-path="url(#p9e5dc59fdd)"
           d="M 100.206894 190.455717  L 131.452032 190.455717  "
           style="fill:none;stroke:#000000;"
           id="path659" />
      </g>
      <g
         id="LineCollection_6">
        <path
           clip-path="url(#p9e5dc59fdd)"
           d="M 99.353712 181.794511  L 134.487386 181.794511  "
           style="fill:none;stroke:#000000;"
           id="path662" />
      </g>
      <g
         id="LineCollection_7">
        <path
           clip-path="url(#p9e5dc59fdd)"
           d="M 98.623001 173.494758  L 137.495333 173.494758  "
           style="fill:none;stroke:#000000;"
           id="path665" />
      </g>
      <g
         id="LineCollection_8">
        <path
           clip-path="url(#p9e5dc59fdd)"
           d="M 97.986655 165.556458  L 140.512638 165.556458  "
           style="fill:none;stroke:#000000;"
           id="path668" />
      </g>
      <g
         id="LineCollection_9">
        <path
           clip-path="url(#p9e5dc59fdd)"
           d="M 97.425928 157.97961  L 143.567949 157.97961  "
           style="fill:none;stroke:#000000;"
           id="path671" />
      </g>
      <g
         id="LineCollection_10">
        <path
           clip-path="url(#p9e5dc59fdd)"
           d="M 96.927625 150.764215  L 146.685853 150.764215  "
           style="fill:none;stroke:#000000;"
           id="path674" />
      </g>
      <g
         id="LineCollection_11">
        <path
           clip-path="url(#p9e5dc59fdd)"
           d="M 96.482068 143.910273  L 149.889222 143.910273  "
           style="fill:none;stroke:#000000;"
           id="path677" />
      </g>
      <g
         id="LineCollection_12">
        <path
           clip-path="url(#p9e5dc59fdd)"
           d="M 96.081933 137.417784  L 153.20078 137.417784  "
           style="fill:none;stroke:#000000;"
           id="path680" />
      </g>
      <g
         id="LineCollection_13">
        <path
           clip-path="url(#p9e5dc59fdd)"
           d="M 95.721542 131.286747  L 156.644333 131.286747  "
           style="fill:none;stroke:#000000;"
           id="path683" />
      </g>
      <g
         id="LineCollection_14">
        <path
           clip-path="url(#p9e5dc59fdd)"
           d="M 95.396399 125.517163  L 160.245914 125.517163  "
           style="fill:none;stroke:#000000;"
           id="path686" />
      </g>
      <g
         id="LineCollection_15">
        <path
           clip-path="url(#p9e5dc59fdd)"
           d="M 95.10289 120.109032  L 164.035 120.109032  "
           style="fill:none;stroke:#000000;"
           id="path689" />
      </g>
      <g
         id="LineCollection_16">
        <path
           clip-path="url(#p9e5dc59fdd)"
           d="M 94.838071 115.062353  L 168.045964 115.062353  "
           style="fill:none;stroke:#000000;"
           id="path692" />
      </g>
      <g
         id="LineCollection_17">
        <path
           clip-path="url(#p9e5dc59fdd)"
           d="M 94.599515 110.377127  L 172.319946 110.377127  "
           style="fill:none;stroke:#000000;"
           id="path695" />
      </g>
      <g
         id="LineCollection_18">
        <path
           clip-path="url(#p9e5dc59fdd)"
           d="M 94.38521 106.053354  L 176.907403 106.053354  "
           style="fill:none;stroke:#000000;"
           id="path698" />
      </g>
      <g
         id="LineCollection_19">
        <path
           clip-path="url(#p9e5dc59fdd)"
           d="M 94.193476 102.091034  L 181.87175 102.091034  "
           style="fill:none;stroke:#000000;"
           id="path701" />
      </g>
      <g
         id="LineCollection_20">
        <path
           clip-path="url(#p9e5dc59fdd)"
           d="M 94.022902 98.490166  L 187.294778 98.490166  "
           style="fill:none;stroke:#000000;"
           id="path704" />
      </g>
      <g
         id="LineCollection_21">
        <path
           clip-path="url(#p9e5dc59fdd)"
           d="M 93.872307 95.250751  L 193.285053 95.250751  "
           style="fill:none;stroke:#000000;"
           id="path707" />
      </g>
      <g
         id="LineCollection_22">
        <path
           clip-path="url(#p9e5dc59fdd)"
           d="M 93.740696 92.372789  L 199.991593 92.372789  "
           style="fill:none;stroke:#000000;"
           id="path710" />
      </g>
      <g
         id="LineCollection_23">
        <path
           clip-path="url(#p9e5dc59fdd)"
           d="M 93.627241 89.856279  L 207.627409 89.856279  "
           style="fill:none;stroke:#000000;"
           id="path713" />
      </g>
      <g
         id="LineCollection_24">
        <path
           clip-path="url(#p9e5dc59fdd)"
           d="M 93.531252 87.701223  L 216.512953 87.701223  "
           style="fill:none;stroke:#000000;"
           id="path716" />
      </g>
      <g
         id="LineCollection_25">
        <path
           clip-path="url(#p9e5dc59fdd)"
           d="M 93.452165 85.907619  L 227.163965 85.907619  "
           style="fill:none;stroke:#000000;"
           id="path719" />
      </g>
      <g
         id="LineCollection_26">
        <path
           clip-path="url(#p9e5dc59fdd)"
           d="M 93.38953 84.475467  L 240.492503 84.475467  "
           style="fill:none;stroke:#000000;"
           id="path722" />
      </g>
      <g
         id="LineCollection_27">
        <path
           clip-path="url(#p9e5dc59fdd)"
           d="M 93.342997 83.404769  L 258.359274 83.404769  "
           style="fill:none;stroke:#000000;"
           id="path725" />
      </g>
      <g
         id="LineCollection_28">
        <path
           clip-path="url(#p9e5dc59fdd)"
           d="M 93.312308 82.695523  L 285.634706 82.695523  "
           style="fill:none;stroke:#000000;"
           id="path728" />
      </g>
      <g
         id="line2d_85">
        <path
           clip-path="url(#p9e5dc59fdd)"
           d="M 91.503584 36.228785  L 93.026926 75.97914  L 94.550267 109.393222  L 96.073609 137.279236  L 97.292282 156.089891  L 98.510955 172.146242  L 99.729628 185.742668  L 100.948302 197.145099  L 102.166975 206.593656  L 103.385648 214.305039  L 104.604321 220.474713  L 105.822995 225.278879  L 106.736999 228.081992  L 107.651004 230.267682  L 108.565009 231.892358  L 109.479014 233.008116  L 110.393019 233.663045  L 111.002356 233.865702  L 111.611692 233.895621  L 112.221029 233.764436  L 113.135034 233.289531  L 114.049039 232.51154  L 114.963044 231.46245  L 116.181717 229.692475  L 117.705058 226.97121  L 119.2284 223.785514  L 121.361078 218.722423  L 123.798425 212.322572  L 127.454444 202.024  L 136.899162 175.111781  L 140.555181 165.447652  L 143.906533 157.170364  L 147.257884 149.498589  L 150.304567 143.063144  L 153.35125 137.136856  L 156.397933 131.70505  L 159.444616 126.746072  L 162.491299 122.23384  L 165.537982 118.13975  L 168.584665 114.434074  L 171.631348 111.08697  L 174.678031 108.069198  L 177.724714 105.352615  L 180.771397 102.910491  L 184.122749 100.511224  L 187.4741 98.382647  L 191.13012 96.335863  L 194.786139 94.543753  L 198.746827 92.854748  L 203.012184 91.291403  L 207.582208 89.869174  L 212.456901 88.596691  L 217.636262 87.476393  L 223.42496 86.457114  L 229.822995 85.561473  L 237.135034 84.771149  L 245.361078 84.108444  L 255.110464 83.549461  L 266.992528 83.097007  L 282.225943 82.749303  L 303.248056 82.506161  L 337.066238 82.363173  L 395.867221 82.314821  L 395.867221 82.314821  "
           style="fill:none;stroke:#1f77b4;stroke-linecap:square;stroke-width:1.5;"
           id="path731" />
      </g>
      <g
         id="patch_3">
        <path
           d="M 76.285402 243.785148  L 76.285402 26.345148  "
           style="fill:none;stroke:#000000;stroke-linecap:square;stroke-linejoin:miter;stroke-width:0.8;"
           id="path734" />
      </g>
      <g
         id="patch_4">
        <path
           d="M 411.085402 243.785148  L 411.085402 26.345148  "
           style="fill:none;stroke:#000000;stroke-linecap:square;stroke-linejoin:miter;stroke-width:0.8;"
           id="path737" />
      </g>
      <g
         id="patch_5">
        <path
           d="M 76.285402 243.785148  L 411.085402 243.785148  "
           style="fill:none;stroke:#000000;stroke-linecap:square;stroke-linejoin:miter;stroke-width:0.8;"
           id="path740" />
      </g>
      <g
         id="patch_6">
        <path
           d="M 76.285402 26.345148  L 411.085402 26.345148  "
           style="fill:none;stroke:#000000;stroke-linecap:square;stroke-linejoin:miter;stroke-width:0.8;"
           id="path743" />
      </g>
      <g
         id="text_12">
        <!-- Potencial de Morse -->
        <g
           transform="translate(171.320875 20.345148)scale(0.19 -0.19)"
           id="g782">
          <defs
             id="defs748">
            <path
               d="M 19.796875 31.90625  L 35.796875 31.90625  C 48.703125 31.90625 58.09375 40.28125 58.09375 49.75  C 58.09375 59.234375 48.90625 68 35.796875 68  L 5.203125 68  L 5.203125 65.40625  C 12.09375 65.40625 13.203125 65.40625 13.203125 60.921875  L 13.203125 6.96875  C 13.203125 2.5 12.09375 2.5 5.203125 2.5  L 5.203125 0  C 8.09375 0 13.40625 0 16.5 0  C 19.59375 0 24.90625 0 27.796875 0  L 27.796875 2.5  C 20.90625 2.5 19.796875 2.5 19.796875 6.96875  z M 19.59375 34  L 19.59375 61.53125  C 19.59375 64.921875 19.796875 65.40625 23.796875 65.40625  L 33.90625 65.40625  C 46.796875 65.40625 50.5 58.03125 50.5 49.75  C 50.5 40.6875 46.09375 34 33.90625 34  z "
               id="CMR17-80" />
            <path
               d="M 20.90625 66  C 20.296875 67.5 20.203125 67.5 18.09375 67.5  L 5.296875 67.5  L 5.296875 65  C 12.203125 65 13.296875 65 13.296875 60.546875  L 13.296875 9.53125  C 13.296875 7.046875 13.296875 2.390625 5.296875 2.390625  L 5.296875 -0.203125  C 7.59375 0 11.796875 0 14.296875 0  C 16.796875 0 21 0 23.296875 -0.203125  L 23.296875 2.390625  C 15.296875 2.390625 15.296875 7.046875 15.296875 9.53125  L 15.296875 64.609375  L 15.40625 64.609375  L 38.90625 1.390625  C 39.296875 0.390625 39.5 -0.203125 40.296875 -0.203125  C 41.09375 -0.203125 41.296875 0.390625 41.703125 1.390625  L 65.40625 65.09375  L 65.5 65.09375  L 65.5 6.84375  C 65.5 2.390625 64.40625 2.390625 57.5 2.390625  L 57.5 -0.203125  C 60.203125 0 65.59375 0 68.5 0  C 71.40625 0 76.90625 0 79.59375 -0.203125  L 79.59375 2.390625  C 72.703125 2.390625 71.59375 2.390625 71.59375 6.84375  L 71.59375 60.546875  C 71.59375 65 72.703125 65 79.59375 65  L 79.59375 67.5  L 66.90625 67.5  C 64.796875 67.5 64.703125 67.40625 64.09375 65.90625  L 42.5 7.84375  z "
               id="CMR17-77" />
          </defs>
          <use
             transform="scale(0.996264)"
             xlink:href="#CMR17-80"
             id="use750" />
          <use
             transform="translate(59.983847 0)scale(0.996264)"
             xlink:href="#CMR17-111"
             id="use752" />
          <use
             transform="translate(105.674324 0)scale(0.996264)"
             xlink:href="#CMR17-116"
             id="use754" />
          <use
             transform="translate(140.955092 0)scale(0.996264)"
             xlink:href="#CMR17-101"
             id="use756" />
          <use
             transform="translate(181.440752 0)scale(0.996264)"
             xlink:href="#CMR17-110"
             id="use758" />
          <use
             transform="translate(232.336122 0)scale(0.996264)"
             xlink:href="#CMR17-99"
             id="use760" />
          <use
             transform="translate(272.821782 0)scale(0.996264)"
             xlink:href="#CMR17-105"
             id="use762" />
          <use
             transform="translate(297.692841 0)scale(0.996264)"
             xlink:href="#CMR17-97"
             id="use764" />
          <use
             transform="translate(343.383318 0)scale(0.996264)"
             xlink:href="#CMR17-108"
             id="use766" />
          <use
             transform="translate(398.330343 0)scale(0.996264)"
             xlink:href="#CMR17-100"
             id="use768" />
          <use
             transform="translate(449.225712 0)scale(0.996264)"
             xlink:href="#CMR17-101"
             id="use770" />
          <use
             transform="translate(519.787339 0)scale(0.996264)"
             xlink:href="#CMR17-77"
             id="use772" />
          <use
             transform="translate(604.47428 0)scale(0.996264)"
             xlink:href="#CMR17-111"
             id="use774" />
          <use
             transform="translate(650.164757 0)scale(0.996264)"
             xlink:href="#CMR17-114"
             id="use776" />
          <use
             transform="translate(685.445525 0)scale(0.996264)"
             xlink:href="#CMR17-115"
             id="use778" />
          <use
             transform="translate(721.246862 0)scale(0.996264)"
             xlink:href="#CMR17-101"
             id="use780" />
        </g>
      </g>
      <g
         id="legend_1">
        <g
           id="patch_7">
          <path
             d="M 340.714978 54.052065  L 402.685402 54.052065  Q 405.085402 54.052065 405.085402 51.652065  L 405.085402 34.745148  Q 405.085402 32.345148 402.685402 32.345148  L 340.714978 32.345148  Q 338.314978 32.345148 338.314978 34.745148  L 338.314978 51.652065  Q 338.314978 54.052065 340.714978 54.052065  z "
             style="fill:#ffffff;opacity:0.8;stroke:#cccccc;stroke-linejoin:miter;"
             id="path785" />
        </g>
        <g
           id="line2d_86">
          <path
             d="M 343.114978 42.063273  L 367.114978 42.063273  "
             style="fill:none;stroke:#1f77b4;stroke-linecap:square;stroke-width:1.5;"
             id="path788" />
        </g>
        <g
           id="line2d_87" />
        <g
           id="text_13">
          <!-- V($\xi$) -->
          <g
             transform="translate(376.714978 46.263273)scale(0.12 -0.12)"
             id="g803">
            <defs
               id="defs793">
              <path
                 d="M 59 58.515625  C 59.90625 60.71875 61.5 65 68.203125 65  L 68.203125 67.6875  C 65.90625 67.484375 63.296875 67.484375 60.796875 67.484375  C 58.40625 67.484375 54.296875 67.484375 52 67.6875  L 52 65  C 57 65 57.203125 61.5 57.203125 60.90625  C 57.203125 59.796875 56.90625 59.109375 56.59375 58.3125  L 36.90625 6.96875  L 16.296875 60.71875  C 16 61.421875 15.796875 61.921875 15.796875 62.40625  C 15.796875 65 19.796875 65 21.90625 65  L 21.90625 67.484375  C 18.703125 67.484375 14 67.484375 10.703125 67.484375  C 8.09375 67.484375 3.40625 67.484375 1 67.6875  L 1 65  C 6.796875 65 7.90625 64.609375 9.09375 61.421875  L 32.90625 -0.40625  C 33.40625 -1.796875 33.5 -2 34.59375 -2  C 35.703125 -2 35.796875 -1.796875 36.296875 -0.40625  z "
                 id="CMR17-86" />
            </defs>
            <use
               transform="scale(0.996264)"
               xlink:href="#CMR17-86"
               id="use795" />
            <use
               transform="translate(69.07243 0)scale(0.996264)"
               xlink:href="#CMR17-40"
               id="use797" />
            <use
               transform="translate(104.353198 0)scale(0.996264)"
               xlink:href="#CMMI12-24"
               id="use799" />
            <use
               transform="translate(151.773531 0)scale(0.996264)"
               xlink:href="#CMR17-41"
               id="use801" />
          </g>
        </g>
      </g>
    </g>
    <text
       xml:space="preserve"
       style="font-style:normal;font-weight:normal;font-size:18.4495px;line-height:1.25;font-family:sans-serif;fill:#1a1a1a;fill-opacity:1;stroke:none;stroke-width:0.461238"
       x="296.43423"
       y="167.32587"
       id="text5626"><tspan
         sodipodi:role="line"
         id="tspan5624"
         style="fill:#1a1a1a;stroke-width:0.461238"
         x="296.43423"
         y="167.32587">D</tspan></text>
    <text
       xml:space="preserve"
       style="font-style:normal;font-weight:normal;font-size:9.18375px;line-height:1.25;font-family:sans-serif;fill:#1a1a1a;fill-opacity:1;stroke:none;stroke-width:0.229593"
       x="310.03256"
       y="154.58823"
       id="text6068"><tspan
         sodipodi:role="line"
         id="tspan6066"
         style="fill:#1a1a1a;stroke-width:0.229593"
         x="310.03256"
         y="154.58823">(M)</tspan></text>
    <rect
       style="fill:#1a1a1a;stroke:#000000;stroke-width:0.338667"
       id="rect6752"
       width="1.1872016"
       height="151.33632"
       x="331.13669"
       y="81.922928" />
    <rect
       style="fill:#1a1a1a;stroke:#000000;stroke-width:0.0995825;stroke-linecap:butt;stroke-linejoin:round"
       id="rect6752-3"
       width="1.3365581"
       height="11.622584"
       x="-83.070602"
       y="325.92413"
       transform="rotate(-90)" />
    <rect
       style="fill:#1a1a1a;stroke:#000000;stroke-width:0.0995825;stroke-linecap:butt;stroke-linejoin:round"
       id="rect6752-3-7"
       width="1.3365581"
       height="11.622584"
       x="-234.40717"
       y="325.92413"
       transform="rotate(-90)" />
  </g>
  <defs
     id="defs812">
    <clipPath
       id="p9e5dc59fdd">
      <rect
         height="217.44"
         width="334.8"
         x="76.285402"
         y="26.345148"
         id="rect809" />
    </clipPath>
  </defs>
</svg>
